<svg width="127" height="18" viewBox="0 0 127 18" fill="none" xmlns="http://www.w3.org/2000/svg">
<path d="M2 2L12.8044 13.0679C14.3739 14.6757 16.9594 14.6757 18.529 13.0679L26.471 4.93211C28.0406 3.32431 30.6261 3.3243 32.1956 4.93211L40.1377 13.0679C41.7072 14.6757 44.2928 14.6757 45.8623 13.0679L53.8044 4.93211C55.3739 3.32431 57.9594 3.3243 59.529 4.93211L67.471 13.0679C69.0406 14.6757 71.6261 14.6757 73.1956 13.0679L81.1377 4.93211C82.7072 3.32431 85.2928 3.3243 86.8623 4.93211L94.8044 13.0679C96.3739 14.6757 98.9594 14.6757 100.529 13.0679L108.471 4.93211C110.041 3.32431 112.626 3.3243 114.196 4.93211L125 16" stroke="#0094D5" stroke-width="3"/>
</svg>
