<svg width="126" height="126" viewBox="0 0 126 126" fill="none" xmlns="http://www.w3.org/2000/svg">
<mask id="mask0_331_646" style="mask-type:alpha" maskUnits="userSpaceOnUse" x="0" y="0" width="126" height="126">
<circle cx="63" cy="63" r="63" fill="#00B5F0"/>
</mask>
<g mask="url(#mask0_331_646)">
<path fill-rule="evenodd" clip-rule="evenodd" d="M141.928 0.950331C142.508 0.358537 143.458 0.348746 144.05 0.928463C144.641 1.50818 144.651 2.45788 144.072 3.04967L133.786 13.5497C127.552 19.9137 117.306 19.9137 111.071 13.5497C106.013 8.38648 97.7008 8.38648 92.643 13.5497C86.4088 19.9137 76.1627 19.9137 69.9285 13.5497C64.8706 8.38647 56.5579 8.38647 51.5001 13.5497C45.2659 19.9137 35.0198 19.9137 28.7856 13.5497C23.7278 8.38647 15.4151 8.38647 10.3573 13.5497L0.0715294 24.0497C-0.508183 24.6415 -1.45787 24.6513 -2.04967 24.0715C-2.64147 23.4918 -2.65125 22.5421 -2.07154 21.9503L8.21418 11.4503C14.4484 5.08625 24.6945 5.08625 30.9287 11.4503C35.9865 16.6135 44.2992 16.6135 49.357 11.4503C55.5912 5.08625 65.8373 5.08625 72.0715 11.4503C77.1294 16.6135 85.4421 16.6135 90.4999 11.4503C96.7341 5.08626 106.98 5.08626 113.214 11.4503C118.272 16.6135 126.585 16.6135 131.643 11.4503L141.928 0.950331ZM141.928 20.9503C142.508 20.3585 143.458 20.3487 144.05 20.9285C144.641 21.5082 144.651 22.4579 144.072 23.0497L133.786 33.5497C127.552 39.9137 117.306 39.9137 111.071 33.5497C106.013 28.3865 97.7008 28.3865 92.643 33.5497C86.4088 39.9137 76.1627 39.9137 69.9285 33.5497C64.8706 28.3865 56.5579 28.3865 51.5001 33.5497C45.2659 39.9137 35.0198 39.9137 28.7856 33.5497C23.7278 28.3865 15.4151 28.3865 10.3573 33.5497L0.0715294 44.0497C-0.508183 44.6415 -1.45787 44.6513 -2.04967 44.0715C-2.64147 43.4918 -2.65125 42.5421 -2.07154 41.9503L8.21418 31.4503C14.4484 25.0862 24.6945 25.0863 30.9287 31.4503C35.9865 36.6135 44.2992 36.6135 49.357 31.4503C55.5912 25.0863 65.8373 25.0863 72.0715 31.4503C77.1294 36.6135 85.4421 36.6135 90.4999 31.4503C96.7341 25.0863 106.98 25.0863 113.214 31.4503C118.272 36.6135 126.585 36.6135 131.643 31.4503L141.928 20.9503ZM141.928 40.9503C142.508 40.3585 143.458 40.3487 144.05 40.9285C144.641 41.5082 144.651 42.4579 144.072 43.0497L133.786 53.5497C127.552 59.9137 117.306 59.9137 111.071 53.5497C106.013 48.3865 97.7008 48.3865 92.643 53.5497C86.4088 59.9137 76.1627 59.9137 69.9285 53.5497C64.8706 48.3865 56.5579 48.3865 51.5001 53.5497C45.2659 59.9137 35.0198 59.9137 28.7856 53.5497C23.7278 48.3865 15.4151 48.3865 10.3573 53.5497L0.0715294 64.0497C-0.508183 64.6415 -1.45787 64.6513 -2.04967 64.0715C-2.64147 63.4918 -2.65125 62.5421 -2.07154 61.9503L8.21418 51.4503C14.4484 45.0863 24.6945 45.0863 30.9287 51.4503C35.9865 56.6135 44.2992 56.6135 49.357 51.4503C55.5912 45.0863 65.8373 45.0863 72.0715 51.4503C77.1294 56.6135 85.4421 56.6135 90.4999 51.4503C96.7341 45.0863 106.98 45.0863 113.214 51.4503C118.272 56.6135 126.585 56.6135 131.643 51.4503L141.928 40.9503ZM144.05 60.9285C143.458 60.3487 142.508 60.3585 141.928 60.9503L131.643 71.4503C126.585 76.6135 118.272 76.6135 113.214 71.4503C106.98 65.0863 96.7341 65.0863 90.4999 71.4503C85.4421 76.6135 77.1294 76.6135 72.0715 71.4503C65.8373 65.0863 55.5912 65.0863 49.357 71.4503C44.2992 76.6135 35.9865 76.6135 30.9287 71.4503C24.6945 65.0863 14.4484 65.0863 8.21418 71.4503L-2.07154 81.9503C-2.65125 82.5421 -2.64147 83.4918 -2.04967 84.0715C-1.45787 84.6513 -0.508183 84.6415 0.0715294 84.0497L10.3573 73.5497C15.4151 68.3865 23.7278 68.3865 28.7856 73.5497C35.0198 79.9137 45.2659 79.9137 51.5001 73.5497C56.5579 68.3865 64.8706 68.3865 69.9285 73.5497C76.1627 79.9137 86.4088 79.9137 92.643 73.5497C97.7008 68.3865 106.013 68.3865 111.071 73.5497C117.306 79.9137 127.552 79.9137 133.786 73.5497L144.072 63.0497C144.651 62.4579 144.641 61.5082 144.05 60.9285ZM141.928 80.9503C142.508 80.3585 143.458 80.3487 144.05 80.9285C144.641 81.5082 144.651 82.4579 144.072 83.0497L133.786 93.5497C127.552 99.9137 117.306 99.9137 111.071 93.5497C106.013 88.3865 97.7008 88.3865 92.643 93.5497C86.4088 99.9137 76.1627 99.9137 69.9285 93.5497C64.8706 88.3865 56.5579 88.3865 51.5001 93.5497C45.2659 99.9137 35.0198 99.9137 28.7856 93.5497C23.7278 88.3865 15.4151 88.3865 10.3573 93.5497L0.0715294 104.05C-0.508183 104.641 -1.45787 104.651 -2.04967 104.072C-2.64147 103.492 -2.65125 102.542 -2.07154 101.95L8.21418 91.4503C14.4484 85.0863 24.6945 85.0863 30.9287 91.4503C35.9865 96.6135 44.2992 96.6135 49.357 91.4503C55.5912 85.0863 65.8373 85.0863 72.0715 91.4503C77.1294 96.6135 85.4421 96.6135 90.4999 91.4503C96.7341 85.0863 106.98 85.0863 113.214 91.4503C118.272 96.6135 126.585 96.6135 131.643 91.4503L141.928 80.9503ZM144.05 100.928C143.458 100.349 142.508 100.359 141.928 100.95L131.643 111.45C126.585 116.614 118.272 116.614 113.214 111.45C106.98 105.086 96.7341 105.086 90.4999 111.45C85.4421 116.614 77.1294 116.614 72.0715 111.45C65.8373 105.086 55.5912 105.086 49.357 111.45C44.2992 116.614 35.9865 116.614 30.9287 111.45C24.6945 105.086 14.4484 105.086 8.21418 111.45L-2.07154 121.95C-2.65125 122.542 -2.64147 123.492 -2.04967 124.072C-1.45787 124.651 -0.508183 124.641 0.0715294 124.05L10.3573 113.55C15.4151 108.386 23.7278 108.386 28.7856 113.55C35.0198 119.914 45.2659 119.914 51.5001 113.55C56.5579 108.386 64.8706 108.386 69.9285 113.55C76.1627 119.914 86.4088 119.914 92.643 113.55C97.7008 108.386 106.013 108.386 111.071 113.55C117.306 119.914 127.552 119.914 133.786 113.55L144.072 103.05C144.651 102.458 144.641 101.508 144.05 100.928Z" fill="#28BAB7"/>
</g>
</svg>
