<svg width="167" height="165" viewBox="0 0 167 165" fill="none" xmlns="http://www.w3.org/2000/svg">
<g opacity="0.5">
<rect x="0.640625" y="0.553711" width="4.49632" height="4.49632" rx="1.70995" fill="#28BAB7"/>
<rect x="18.625" y="0.553711" width="4.49632" height="4.49632" rx="1.70995" fill="#28BAB7"/>
<rect x="36.6133" y="0.553711" width="4.49632" height="4.49632" rx="1.70995" fill="#28BAB7"/>
<rect x="54.5977" y="0.553711" width="4.49632" height="4.49632" rx="1.70995" fill="#28BAB7"/>
<rect x="72.5811" y="0.553711" width="4.49632" height="4.49632" rx="1.70995" fill="#28BAB7"/>
<rect x="90.5664" y="0.553711" width="4.49632" height="4.49632" rx="1.70995" fill="#28BAB7"/>
<rect x="108.551" y="0.553711" width="4.49632" height="4.49632" rx="1.70995" fill="#28BAB7"/>
<rect x="126.539" y="0.553711" width="4.49632" height="4.49632" rx="1.70995" fill="#28BAB7"/>
<rect x="144.523" y="0.553711" width="4.49632" height="4.49632" rx="1.70995" fill="#28BAB7"/>
<rect x="162.504" y="0.553711" width="4.49632" height="4.49632" rx="1.70995" fill="#28BAB7"/>
<rect x="0.640625" y="18.5391" width="4.49632" height="4.49632" rx="1.70995" fill="#28BAB7"/>
<rect x="18.625" y="18.5389" width="4.49632" height="4.49632" rx="1.70995" fill="#28BAB7"/>
<rect x="36.6133" y="18.5391" width="4.49632" height="4.49632" rx="1.70995" fill="#28BAB7"/>
<rect x="54.5977" y="18.5391" width="4.49632" height="4.49632" rx="1.70995" fill="#28BAB7"/>
<rect x="72.582" y="18.5389" width="4.49632" height="4.49632" rx="1.70995" fill="#28BAB7"/>
<rect x="90.5664" y="18.5391" width="4.49632" height="4.49632" rx="1.70995" fill="#28BAB7"/>
<rect x="108.551" y="18.5389" width="4.49632" height="4.49632" rx="1.70995" fill="#28BAB7"/>
<rect x="126.539" y="18.5389" width="4.49632" height="4.49632" rx="1.70995" fill="#28BAB7"/>
<rect x="144.523" y="18.5391" width="4.49632" height="4.49632" rx="1.70995" fill="#28BAB7"/>
<rect x="162.504" y="18.5389" width="4.49632" height="4.49632" rx="1.70995" fill="#28BAB7"/>
<rect x="0.640625" y="36.5242" width="4.49632" height="4.49632" rx="1.70995" fill="#28BAB7"/>
<rect x="18.625" y="36.5243" width="4.49632" height="4.49632" rx="1.70995" fill="#28BAB7"/>
<rect x="36.6133" y="36.5242" width="4.49632" height="4.49632" rx="1.70995" fill="#28BAB7"/>
<rect x="54.5977" y="36.5242" width="4.49632" height="4.49632" rx="1.70995" fill="#28BAB7"/>
<rect x="72.582" y="36.5243" width="4.49632" height="4.49632" rx="1.70995" fill="#28BAB7"/>
<rect x="90.5664" y="36.5242" width="4.49632" height="4.49632" rx="1.70995" fill="#28BAB7"/>
<rect x="108.551" y="36.5243" width="4.49632" height="4.49632" rx="1.70995" fill="#28BAB7"/>
<rect x="126.539" y="36.5243" width="4.49632" height="4.49632" rx="1.70995" fill="#28BAB7"/>
<rect x="144.523" y="36.5242" width="4.49632" height="4.49632" rx="1.70995" fill="#28BAB7"/>
<rect x="162.504" y="36.5243" width="4.49632" height="4.49632" rx="1.70995" fill="#28BAB7"/>
<rect x="0.640625" y="54.5095" width="4.49632" height="4.49632" rx="1.70995" fill="#28BAB7"/>
<rect x="18.625" y="54.5095" width="4.49632" height="4.49632" rx="1.70995" fill="#28BAB7"/>
<rect x="36.6133" y="54.5095" width="4.49632" height="4.49632" rx="1.70995" fill="#28BAB7"/>
<rect x="54.5977" y="54.5095" width="4.49632" height="4.49632" rx="1.70995" fill="#28BAB7"/>
<rect x="72.582" y="54.5095" width="4.49632" height="4.49632" rx="1.70995" fill="#28BAB7"/>
<rect x="90.5664" y="54.5095" width="4.49632" height="4.49632" rx="1.70995" fill="#28BAB7"/>
<rect x="108.551" y="54.5095" width="4.49632" height="4.49632" rx="1.70995" fill="#28BAB7"/>
<rect x="126.539" y="54.5095" width="4.49632" height="4.49632" rx="1.70995" fill="#28BAB7"/>
<rect x="144.523" y="54.5095" width="4.49632" height="4.49632" rx="1.70995" fill="#28BAB7"/>
<rect x="162.504" y="54.5095" width="4.49632" height="4.49632" rx="1.70995" fill="#28BAB7"/>
<rect x="0.640625" y="72.4948" width="4.49632" height="4.49632" rx="1.70995" fill="#28BAB7"/>
<rect x="18.625" y="72.4948" width="4.49632" height="4.49632" rx="1.70995" fill="#28BAB7"/>
<rect x="36.6133" y="72.4948" width="4.49632" height="4.49632" rx="1.70995" fill="#28BAB7"/>
<rect x="54.5977" y="72.4948" width="4.49632" height="4.49632" rx="1.70995" fill="#28BAB7"/>
<rect x="72.582" y="72.4948" width="4.49632" height="4.49632" rx="1.70995" fill="#28BAB7"/>
<rect x="90.5664" y="72.4948" width="4.49632" height="4.49632" rx="1.70995" fill="#28BAB7"/>
<rect x="108.551" y="72.4948" width="4.49632" height="4.49632" rx="1.70995" fill="#28BAB7"/>
<rect x="126.539" y="72.4948" width="4.49632" height="4.49632" rx="1.70995" fill="#28BAB7"/>
<rect x="144.523" y="72.4948" width="4.49632" height="4.49632" rx="1.70995" fill="#28BAB7"/>
<rect x="162.504" y="72.4948" width="4.49632" height="4.49632" rx="1.70995" fill="#28BAB7"/>
<rect x="0.640625" y="90.48" width="4.49632" height="4.49632" rx="1.70995" fill="#28BAB7"/>
<rect x="18.625" y="90.48" width="4.49632" height="4.49632" rx="1.70995" fill="#28BAB7"/>
<rect x="36.6133" y="90.48" width="4.49632" height="4.49632" rx="1.70995" fill="#28BAB7"/>
<rect x="54.5977" y="90.48" width="4.49632" height="4.49632" rx="1.70995" fill="#28BAB7"/>
<rect x="72.582" y="90.48" width="4.49632" height="4.49632" rx="1.70995" fill="#28BAB7"/>
<rect x="90.5664" y="90.48" width="4.49632" height="4.49632" rx="1.70995" fill="#28BAB7"/>
<rect x="108.551" y="90.48" width="4.49632" height="4.49632" rx="1.70995" fill="#28BAB7"/>
<rect x="126.539" y="90.48" width="4.49632" height="4.49632" rx="1.70995" fill="#28BAB7"/>
<rect x="144.523" y="90.48" width="4.49632" height="4.49632" rx="1.70995" fill="#28BAB7"/>
<rect x="162.504" y="90.48" width="4.49632" height="4.49632" rx="1.70995" fill="#28BAB7"/>
<rect x="0.640625" y="108.465" width="4.49632" height="4.49632" rx="1.70995" fill="#28BAB7"/>
<rect x="0.640625" y="125.812" width="4.49632" height="4.49632" rx="1.70995" fill="#28BAB7"/>
<rect x="0.640625" y="143.157" width="4.49632" height="4.49632" rx="1.70995" fill="#28BAB7"/>
<rect x="0.640625" y="160.504" width="4.49632" height="4.49632" rx="1.70995" fill="#28BAB7"/>
<rect x="18.625" y="108.465" width="4.49632" height="4.49632" rx="1.70995" fill="#28BAB7"/>
<rect x="18.625" y="125.812" width="4.49632" height="4.49632" rx="1.70995" fill="#28BAB7"/>
<rect x="18.625" y="143.157" width="4.49632" height="4.49632" rx="1.70995" fill="#28BAB7"/>
<rect x="18.625" y="160.504" width="4.49632" height="4.49632" rx="1.70995" fill="#28BAB7"/>
<rect x="36.6133" y="108.465" width="4.49632" height="4.49632" rx="1.70995" fill="#28BAB7"/>
<rect x="36.6133" y="125.812" width="4.49632" height="4.49632" rx="1.70995" fill="#28BAB7"/>
<rect x="36.6133" y="143.157" width="4.49632" height="4.49632" rx="1.70995" fill="#28BAB7"/>
<rect x="36.6133" y="160.504" width="4.49632" height="4.49632" rx="1.70995" fill="#28BAB7"/>
<rect x="54.5977" y="108.465" width="4.49632" height="4.49632" rx="1.70995" fill="#28BAB7"/>
<rect x="54.5977" y="125.812" width="4.49632" height="4.49632" rx="1.70995" fill="#28BAB7"/>
<rect x="54.5977" y="143.157" width="4.49632" height="4.49632" rx="1.70995" fill="#28BAB7"/>
<rect x="54.5977" y="160.504" width="4.49632" height="4.49632" rx="1.70995" fill="#28BAB7"/>
<rect x="72.582" y="108.465" width="4.49632" height="4.49632" rx="1.70995" fill="#28BAB7"/>
<rect x="72.582" y="125.812" width="4.49632" height="4.49632" rx="1.70995" fill="#28BAB7"/>
<rect x="72.582" y="143.157" width="4.49632" height="4.49632" rx="1.70995" fill="#28BAB7"/>
<rect x="72.582" y="160.504" width="4.49632" height="4.49632" rx="1.70995" fill="#28BAB7"/>
<rect x="90.5664" y="108.465" width="4.49632" height="4.49632" rx="1.70995" fill="#28BAB7"/>
<rect x="90.5664" y="125.812" width="4.49632" height="4.49632" rx="1.70995" fill="#28BAB7"/>
<rect x="90.5664" y="143.157" width="4.49632" height="4.49632" rx="1.70995" fill="#28BAB7"/>
<rect x="90.5664" y="160.504" width="4.49632" height="4.49632" rx="1.70995" fill="#28BAB7"/>
<rect x="108.551" y="108.465" width="4.49632" height="4.49632" rx="1.70995" fill="#28BAB7"/>
<rect x="108.551" y="125.812" width="4.49632" height="4.49632" rx="1.70995" fill="#28BAB7"/>
<rect x="108.551" y="143.157" width="4.49632" height="4.49632" rx="1.70995" fill="#28BAB7"/>
<rect x="108.551" y="160.504" width="4.49632" height="4.49632" rx="1.70995" fill="#28BAB7"/>
<rect x="126.539" y="108.465" width="4.49632" height="4.49632" rx="1.70995" fill="#28BAB7"/>
<rect x="126.539" y="125.812" width="4.49632" height="4.49632" rx="1.70995" fill="#28BAB7"/>
<rect x="126.539" y="143.157" width="4.49632" height="4.49632" rx="1.70995" fill="#28BAB7"/>
<rect x="126.539" y="160.504" width="4.49632" height="4.49632" rx="1.70995" fill="#28BAB7"/>
<rect x="144.523" y="108.465" width="4.49632" height="4.49632" rx="1.70995" fill="#28BAB7"/>
<rect x="144.523" y="125.812" width="4.49632" height="4.49632" rx="1.70995" fill="#28BAB7"/>
<rect x="144.523" y="143.157" width="4.49632" height="4.49632" rx="1.70995" fill="#28BAB7"/>
<rect x="144.523" y="160.504" width="4.49632" height="4.49632" rx="1.70995" fill="#28BAB7"/>
<rect x="162.504" y="108.465" width="4.49632" height="4.49632" rx="1.70995" fill="#28BAB7"/>
<rect x="162.504" y="125.812" width="4.49632" height="4.49632" rx="1.70995" fill="#28BAB7"/>
<rect x="162.504" y="143.157" width="4.49632" height="4.49632" rx="1.70995" fill="#28BAB7"/>
<rect x="162.504" y="160.504" width="4.49632" height="4.49632" rx="1.70995" fill="#28BAB7"/>
</g>
</svg>
