<svg width="60" height="61" viewBox="0 0 60 61" fill="none" xmlns="http://www.w3.org/2000/svg">
<circle cx="30" cy="30.5" r="30" fill="url(#paint0_linear_331_698)"/>
<path d="M39.3333 35C36.3867 35 34 37.3867 34 40.3333C34 41.3333 34.28 42.28 34.7734 43.08C35.6934 44.6267 37.3867 45.6667 39.3333 45.6667C41.28 45.6667 42.9733 44.6267 43.8933 43.08C44.3866 42.28 44.6667 41.3333 44.6667 40.3333C44.6667 37.3867 42.28 35 39.3333 35ZM42.0933 39.76L39.2533 42.3867C39.0667 42.56 38.8133 42.6533 38.5733 42.6533C38.32 42.6533 38.0667 42.56 37.8667 42.36L36.5466 41.04C36.16 40.6533 36.16 40.0133 36.5466 39.6267C36.9333 39.24 37.5733 39.24 37.96 39.6267L38.6 40.2667L40.7333 38.2933C41.1333 37.92 41.7733 37.9467 42.1466 38.3467C42.52 38.7467 42.4933 39.3733 42.0933 39.76Z" fill="white"/>
<path d="M43.3337 25.0533V27H16.667V25.0533C16.667 22 19.147 19.5333 22.2004 19.5333H37.8003C40.8536 19.5333 43.3337 22 43.3337 25.0533Z" fill="white"/>
<path opacity="0.4" d="M16.667 27V36.9467C16.667 40 19.1337 42.4667 22.187 42.4667H30.5337C31.307 42.4667 31.9736 41.8133 31.907 41.04C31.7203 39 32.3737 36.7867 34.187 35.0267C34.9337 34.2933 35.8537 33.7333 36.8537 33.4133C38.5203 32.88 40.1336 32.9467 41.5603 33.4267C42.427 33.72 43.3337 33.0933 43.3337 32.1733V27H16.667ZM24.667 38H22.0003C21.4537 38 21.0003 37.5467 21.0003 37C21.0003 36.4533 21.4537 36 22.0003 36H24.667C25.2137 36 25.667 36.4533 25.667 37C25.667 37.5467 25.2137 38 24.667 38Z" fill="white"/>
<path d="M25.6667 37C25.6667 37.5467 25.2133 38 24.6667 38H22C21.4533 38 21 37.5467 21 37C21 36.4533 21.4533 36 22 36H24.6667C25.2133 36 25.6667 36.4533 25.6667 37Z" fill="white"/>
<defs>
<linearGradient id="paint0_linear_331_698" x1="37.3701" y1="80.2109" x2="81.7985" y2="30.3578" gradientUnits="userSpaceOnUse">
<stop stop-color="#005CAA"/>
<stop offset="1" stop-color="#00B5F0"/>
</linearGradient>
</defs>
</svg>
