<svg width="60" height="61" viewBox="0 0 60 61" fill="none" xmlns="http://www.w3.org/2000/svg">
<circle cx="30" cy="30" r="30" fill="url(#paint0_linear_331_2924)"/>
<path opacity="0.4" d="M35.6534 19.8667H24.3467C21.0534 19.8667 18.3867 22.5467 18.3867 25.8267V38.3734C18.3867 41.6534 21.0667 44.3334 24.3467 44.3334H35.6401C38.9334 44.3334 41.6001 41.6534 41.6001 38.3734V25.8267C41.6134 22.5334 38.9334 19.8667 35.6534 19.8667Z" fill="white"/>
<path d="M33.1329 17.6667H26.8662C25.4795 17.6667 24.3462 18.7867 24.3462 20.1733V21.4267C24.3462 22.8133 25.4662 23.9333 26.8529 23.9333H33.1329C34.5195 23.9333 35.6395 22.8133 35.6395 21.4267V20.1733C35.6529 18.7867 34.5195 17.6667 33.1329 17.6667Z" fill="white"/>
<path d="M33.9998 32.2666H24.6665C24.1198 32.2666 23.6665 31.8133 23.6665 31.2666C23.6665 30.7199 24.1198 30.2666 24.6665 30.2666H33.9998C34.5465 30.2666 34.9998 30.7199 34.9998 31.2666C34.9998 31.8133 34.5465 32.2666 33.9998 32.2666Z" fill="white"/>
<path d="M30.5065 37.5999H24.6665C24.1198 37.5999 23.6665 37.1466 23.6665 36.5999C23.6665 36.0533 24.1198 35.5999 24.6665 35.5999H30.5065C31.0532 35.5999 31.5065 36.0533 31.5065 36.5999C31.5065 37.1466 31.0532 37.5999 30.5065 37.5999Z" fill="white"/>
<defs>
<linearGradient id="paint0_linear_331_2924" x1="37.3701" y1="79.7109" x2="81.7985" y2="29.8578" gradientUnits="userSpaceOnUse">
<stop stop-color="#005CAA"/>
<stop offset="1" stop-color="#00B5F0"/>
</linearGradient>
</defs>
</svg>
