<svg width="60" height="61" viewBox="0 0 60 61" fill="none" xmlns="http://www.w3.org/2000/svg">
<circle cx="30" cy="30.5" r="30" fill="url(#paint0_linear_331_710)"/>
<path d="M37.4937 28.8333C36.9203 28.8333 36.467 28.3667 36.467 27.8067C36.467 27.3133 35.9737 26.2867 35.147 25.3933C34.3337 24.5267 33.4403 24.02 32.6937 24.02C32.1203 24.02 31.667 23.5533 31.667 22.9933C31.667 22.4333 32.1337 21.9667 32.6937 21.9667C34.027 21.9667 35.427 22.6867 36.6537 23.98C37.8003 25.1933 38.5337 26.7 38.5337 27.7933C38.5337 28.3667 38.067 28.8333 37.4937 28.8333Z" fill="white"/>
<path d="M42.3064 28.8333C41.733 28.8333 41.2797 28.3666 41.2797 27.8066C41.2797 23.0733 37.4264 19.2333 32.7064 19.2333C32.133 19.2333 31.6797 18.7666 31.6797 18.2066C31.6797 17.6466 32.133 17.1666 32.693 17.1666C38.5597 17.1666 43.333 21.94 43.333 27.8066C43.333 28.3666 42.8664 28.8333 42.3064 28.8333Z" fill="white"/>
<path opacity="0.4" d="M29.7203 33.4466L25.3603 37.8066C24.8803 37.38 24.4137 36.94 23.9603 36.4866C22.587 35.1 21.347 33.6466 20.2403 32.1266C19.147 30.6066 18.267 29.0866 17.627 27.58C16.987 26.06 16.667 24.6066 16.667 23.22C16.667 22.3133 16.827 21.4466 17.147 20.6466C17.467 19.8333 17.9737 19.0866 18.6803 18.42C19.5337 17.58 20.467 17.1666 21.4537 17.1666C21.827 17.1666 22.2003 17.2466 22.5337 17.4066C22.8803 17.5666 23.187 17.8066 23.427 18.1533L26.5203 22.5133C26.7603 22.8466 26.9337 23.1533 27.0537 23.4466C27.1737 23.7266 27.2403 24.0066 27.2403 24.26C27.2403 24.58 27.147 24.9 26.9603 25.2066C26.787 25.5133 26.5337 25.8333 26.2137 26.1533L25.2003 27.2066C25.0537 27.3533 24.987 27.5266 24.987 27.74C24.987 27.8466 25.0003 27.94 25.027 28.0466C25.067 28.1533 25.107 28.2333 25.1337 28.3133C25.3737 28.7533 25.787 29.3266 26.3737 30.02C26.9737 30.7133 27.6137 31.42 28.307 32.1266C28.787 32.5933 29.2537 33.0466 29.7203 33.4466Z" fill="white"/>
<path d="M43.2931 38.9401C43.2931 39.3134 43.2265 39.7001 43.0931 40.0734C43.0531 40.1801 43.0131 40.2868 42.9598 40.3934C42.7331 40.8734 42.4398 41.3268 42.0531 41.7534C41.3998 42.4734 40.6798 42.9934 39.8665 43.3268C39.8531 43.3268 39.8398 43.3401 39.8265 43.3401C39.0398 43.6601 38.1865 43.8334 37.2665 43.8334C35.9065 43.8334 34.4531 43.5134 32.9198 42.8601C31.3865 42.2068 29.8531 41.3268 28.3331 40.2201C27.8131 39.8334 27.2931 39.4468 26.7998 39.0334L31.1598 34.6734C31.5331 34.9534 31.8665 35.1668 32.1465 35.3134C32.2131 35.3401 32.2931 35.3801 32.3865 35.4201C32.4931 35.4601 32.5998 35.4734 32.7198 35.4734C32.9465 35.4734 33.1198 35.3934 33.2665 35.2468L34.2798 34.2468C34.6131 33.9134 34.9331 33.6601 35.2398 33.5001C35.5465 33.3134 35.8531 33.2201 36.1865 33.2201C36.4398 33.2201 36.7065 33.2734 36.9998 33.3934C37.2931 33.5134 37.5998 33.6868 37.9331 33.9134L42.3465 37.0468C42.6931 37.2868 42.9331 37.5668 43.0798 37.9001C43.2131 38.2334 43.2931 38.5668 43.2931 38.9401Z" fill="white"/>
<defs>
<linearGradient id="paint0_linear_331_710" x1="37.3701" y1="80.2109" x2="81.7985" y2="30.3578" gradientUnits="userSpaceOnUse">
<stop stop-color="#005CAA"/>
<stop offset="1" stop-color="#00B5F0"/>
</linearGradient>
</defs>
</svg>
