<svg width="60" height="61" viewBox="0 0 60 61" fill="none" xmlns="http://www.w3.org/2000/svg">
<circle cx="30" cy="30.5" r="30" fill="url(#paint0_linear_483_17726)"/>
<path opacity="0.4" d="M45 23C45 20.7909 43.2091 19 41 19H19C16.7909 19 15 20.7909 15 23V41.2338C15 42.0111 15.848 42.4912 16.5145 42.0913L19.8124 40.1125C20.5895 39.6463 21.4787 39.4 22.3849 39.4H41C43.2091 39.4 45 37.6091 45 35.4V23Z" fill="white"/>
<path d="M28.0042 31.6653V31.1145C28.0042 30.6833 28.0517 30.3074 28.1467 29.9869C28.2417 29.6663 28.401 29.3662 28.6245 29.0865C28.848 28.8009 29.1497 28.5037 29.5297 28.1948C29.9209 27.8743 30.231 27.5974 30.4601 27.3643C30.6948 27.1312 30.8624 26.8981 30.963 26.665C31.0692 26.4261 31.1223 26.1492 31.1223 25.8345C31.1223 25.3392 30.9602 24.9633 30.6361 24.7069C30.3176 24.4446 29.8678 24.3135 29.2866 24.3135C28.7726 24.3135 28.2892 24.3892 27.8366 24.5408C27.384 24.6923 26.9369 24.8817 26.4955 25.109L25.7998 23.5704C26.3083 23.279 26.8587 23.0459 27.451 22.8711C28.0489 22.6904 28.7055 22.6001 29.4208 22.6001C30.5607 22.6001 31.4408 22.8886 32.061 23.4655C32.6869 24.0425 32.9998 24.803 32.9998 25.7471C32.9998 26.2658 32.9216 26.7116 32.7651 27.0846C32.6087 27.4518 32.3768 27.7927 32.0694 28.1074C31.7677 28.4163 31.4017 28.7426 30.9714 29.0865C30.6194 29.3778 30.3483 29.6314 30.1584 29.847C29.974 30.0568 29.8454 30.2695 29.7728 30.4851C29.7057 30.7008 29.6722 30.9601 29.6722 31.2631V31.6653H28.0042ZM27.6857 34.4801C27.6857 34.0022 27.8031 33.6671 28.0378 33.4748C28.278 33.2767 28.5714 33.1776 28.9178 33.1776C29.2531 33.1776 29.5409 33.2767 29.7812 33.4748C30.0215 33.6671 30.1416 34.0022 30.1416 34.4801C30.1416 34.9463 30.0215 35.2843 29.7812 35.4941C29.5409 35.6981 29.2531 35.8001 28.9178 35.8001C28.5714 35.8001 28.278 35.6981 28.0378 35.4941C27.8031 35.2843 27.6857 34.9463 27.6857 34.4801Z" fill="white"/>
<path d="M40.3333 32C37.3867 32 35 34.3867 35 37.3333C35 38.3333 35.28 39.28 35.7734 40.08C36.6934 41.6267 38.3867 42.6667 40.3333 42.6667C42.28 42.6667 43.9733 41.6267 44.8933 40.08C45.3866 39.28 45.6667 38.3333 45.6667 37.3333C45.6667 34.3867 43.28 32 40.3333 32ZM43.0933 36.76L40.2533 39.3867C40.0667 39.56 39.8133 39.6533 39.5733 39.6533C39.32 39.6533 39.0667 39.56 38.8667 39.36L37.5466 38.04C37.16 37.6533 37.16 37.0133 37.5466 36.6267C37.9333 36.24 38.5733 36.24 38.96 36.6267L39.6 37.2667L41.7333 35.2933C42.1333 34.92 42.7733 34.9467 43.1466 35.3467C43.52 35.7467 43.4933 36.3733 43.0933 36.76Z" fill="white"/>
<defs>
<linearGradient id="paint0_linear_483_17726" x1="37.3701" y1="80.2109" x2="81.7985" y2="30.3578" gradientUnits="userSpaceOnUse">
<stop stop-color="#005CAA"/>
<stop offset="1" stop-color="#00B5F0"/>
</linearGradient>
</defs>
</svg>
