<svg width="154" height="160" viewBox="0 0 154 160" fill="none" xmlns="http://www.w3.org/2000/svg">
<g filter="url(#filter0_d_331_734)">
<path d="M63.5807 18.5612C71.8073 13.8129 81.9427 13.8129 90.1693 18.5612L110.456 30.2705C118.682 35.0188 123.75 43.7941 123.75 53.2907V76.7093C123.75 86.2059 118.682 94.9812 110.456 99.7295L90.1693 111.439C81.9427 116.187 71.8073 116.187 63.5807 111.439L43.2943 99.7295C35.0677 94.9812 30 86.2059 30 76.7093V53.2907C30 43.7941 35.0677 35.0188 43.2943 30.2705L63.5807 18.5612Z" fill="url(#paint0_linear_331_734)"/>
</g>
<path opacity="0.4" d="M96.875 59V71C96.875 78 92.875 81 86.875 81H69.775C70.475 79.82 70.875 78.46 70.875 77C70.875 72.58 67.295 69 62.875 69C60.475 69 58.335 70.06 56.875 71.72V59C56.875 52 60.875 49 66.875 49H86.875C92.875 49 96.875 52 96.875 59Z" fill="white"/>
<path d="M76.875 70C79.6364 70 81.875 67.7614 81.875 65C81.875 62.2386 79.6364 60 76.875 60C74.1136 60 71.875 62.2386 71.875 65C71.875 67.7614 74.1136 70 76.875 70Z" fill="white"/>
<path d="M89.875 70.5C89.055 70.5 88.375 69.82 88.375 69V61C88.375 60.18 89.055 59.5 89.875 59.5C90.695 59.5 91.375 60.18 91.375 61V69C91.375 69.82 90.695 70.5 89.875 70.5Z" fill="white"/>
<path d="M62.875 69C58.455 69 54.875 72.58 54.875 77C54.875 78.5 55.295 79.92 56.035 81.12C57.415 83.44 59.955 85 62.875 85C65.795 85 68.335 83.44 69.715 81.12C70.455 79.92 70.875 78.5 70.875 77C70.875 72.58 67.295 69 62.875 69ZM66.815 76.34L62.555 80.28C62.275 80.54 61.895 80.6801 61.535 80.6801C61.155 80.6801 60.775 80.54 60.475 80.24L58.495 78.26C57.915 77.68 57.915 76.72 58.495 76.14C59.075 75.56 60.035 75.56 60.615 76.14L61.575 77.1L64.775 74.14C65.375 73.58 66.335 73.62 66.895 74.22C67.455 74.82 67.415 75.78 66.815 76.34Z" fill="white"/>
<defs>
<filter id="filter0_d_331_734" x="0" y="0" width="153.75" height="160" filterUnits="userSpaceOnUse" color-interpolation-filters="sRGB">
<feFlood flood-opacity="0" result="BackgroundImageFix"/>
<feColorMatrix in="SourceAlpha" type="matrix" values="0 0 0 0 0 0 0 0 0 0 0 0 0 0 0 0 0 0 127 0" result="hardAlpha"/>
<feOffset dy="15"/>
<feGaussianBlur stdDeviation="15"/>
<feComposite in2="hardAlpha" operator="out"/>
<feColorMatrix type="matrix" values="0 0 0 0 0 0 0 0 0 0.360784 0 0 0 0 0.666667 0 0 0 0.25 0"/>
<feBlend mode="normal" in2="BackgroundImageFix" result="effect1_dropShadow_331_734"/>
<feBlend mode="normal" in="SourceGraphic" in2="effect1_dropShadow_331_734" result="shape"/>
</filter>
<linearGradient id="paint0_linear_331_734" x1="88.3908" y1="147.851" x2="162.834" y2="69.5391" gradientUnits="userSpaceOnUse">
<stop stop-color="#005CAA"/>
<stop offset="1" stop-color="#00B5F0"/>
</linearGradient>
</defs>
</svg>
