<svg width="154" height="160" viewBox="0 0 154 160" fill="none" xmlns="http://www.w3.org/2000/svg">
<g filter="url(#filter0_d_331_743)">
<path d="M63.5807 18.5612C71.8073 13.8129 81.9427 13.8129 90.1693 18.5612L110.456 30.2705C118.682 35.0188 123.75 43.7941 123.75 53.2907V76.7093C123.75 86.2059 118.682 94.9812 110.456 99.7295L90.1693 111.439C81.9427 116.187 71.8073 116.187 63.5807 111.439L43.2943 99.7295C35.0677 94.9812 30 86.2059 30 76.7093V53.2907C30 43.7941 35.0677 35.0188 43.2943 30.2705L63.5807 18.5612Z" fill="url(#paint0_linear_331_743)"/>
</g>
<path d="M66.875 52.5C66.055 52.5 65.375 51.82 65.375 51V45C65.375 44.18 66.055 43.5 66.875 43.5C67.695 43.5 68.375 44.18 68.375 45V51C68.375 51.82 67.695 52.5 66.875 52.5Z" fill="white"/>
<path d="M82.875 52.5C82.055 52.5 81.375 51.82 81.375 51V45C81.375 44.18 82.055 43.5 82.875 43.5C83.695 43.5 84.375 44.18 84.375 45V51C84.375 51.82 83.695 52.5 82.875 52.5Z" fill="white"/>
<path opacity="0.4" d="M92.875 58V75C92.875 81 89.875 85 82.875 85H66.875C59.875 85 56.875 81 56.875 75V58C56.875 52 59.875 48 66.875 48H82.875C89.875 48 92.875 52 92.875 58Z" fill="white"/>
<path d="M78.875 64.5H66.875C66.055 64.5 65.375 63.82 65.375 63C65.375 62.18 66.055 61.5 66.875 61.5H78.875C79.695 61.5 80.375 62.18 80.375 63C80.375 63.82 79.695 64.5 78.875 64.5Z" fill="white"/>
<path d="M72.875 74.5H66.875C66.055 74.5 65.375 73.82 65.375 73C65.375 72.18 66.055 71.5 66.875 71.5H72.875C73.695 71.5 74.375 72.18 74.375 73C74.375 73.82 73.695 74.5 72.875 74.5Z" fill="white"/>
<path d="M94.875 68.26C93.095 66.84 90.835 66 88.375 66C85.915 66 83.615 66.8599 81.815 68.3199C79.395 70.2199 77.875 73.2 77.875 76.5C77.875 78.46 78.435 80.34 79.395 81.9C80.135 83.12 81.095 84.18 82.235 85C83.955 86.26 86.075 87 88.375 87C91.035 87 93.435 86.02 95.275 84.38C96.095 83.7 96.795 82.86 97.355 81.9C98.315 80.34 98.875 78.46 98.875 76.5C98.875 73.16 97.315 70.18 94.875 68.26ZM88.375 81.5C88.375 78.74 86.135 76.5 83.375 76.5C86.135 76.5 88.375 74.26 88.375 71.5C88.375 74.26 90.615 76.5 93.375 76.5C90.615 76.5 88.375 78.74 88.375 81.5Z" fill="white"/>
<defs>
<filter id="filter0_d_331_743" x="0" y="0" width="153.75" height="160" filterUnits="userSpaceOnUse" color-interpolation-filters="sRGB">
<feFlood flood-opacity="0" result="BackgroundImageFix"/>
<feColorMatrix in="SourceAlpha" type="matrix" values="0 0 0 0 0 0 0 0 0 0 0 0 0 0 0 0 0 0 127 0" result="hardAlpha"/>
<feOffset dy="15"/>
<feGaussianBlur stdDeviation="15"/>
<feComposite in2="hardAlpha" operator="out"/>
<feColorMatrix type="matrix" values="0 0 0 0 0 0 0 0 0 0.360784 0 0 0 0 0.666667 0 0 0 0.25 0"/>
<feBlend mode="normal" in2="BackgroundImageFix" result="effect1_dropShadow_331_743"/>
<feBlend mode="normal" in="SourceGraphic" in2="effect1_dropShadow_331_743" result="shape"/>
</filter>
<linearGradient id="paint0_linear_331_743" x1="88.3908" y1="147.851" x2="162.834" y2="69.5391" gradientUnits="userSpaceOnUse">
<stop stop-color="#005CAA"/>
<stop offset="1" stop-color="#00B5F0"/>
</linearGradient>
</defs>
</svg>
