<svg width="60" height="61" viewBox="0 0 60 61" fill="none" xmlns="http://www.w3.org/2000/svg">
<circle cx="30" cy="30.5" r="30" fill="url(#paint0_linear_430_346)"/>
<rect opacity="0.4" x="18" y="17.8006" width="22" height="26.4" rx="4" fill="white"/>
<path d="M25.3335 27.7002C25.3335 28.3016 24.8349 28.8002 24.2335 28.8002H21.3002C20.6989 28.8002 20.2002 28.3016 20.2002 27.7002C20.2002 27.0989 20.6989 26.6002 21.3002 26.6002H24.2335C24.8349 26.6002 25.3335 27.0989 25.3335 27.7002Z" fill="white"/>
<path d="M36.3335 23.3004C36.3335 23.9018 35.8349 24.4004 35.2335 24.4004H21.3002C20.6989 24.4004 20.2002 23.9018 20.2002 23.3004C20.2002 22.6991 20.6989 22.2004 21.3002 22.2004H35.2335C35.8349 22.2004 36.3335 22.6991 36.3335 23.3004Z" fill="white"/>
<path d="M30.8335 32.101C30.8335 32.7023 30.3349 33.201 29.7335 33.201H21.3002C20.6989 33.201 20.2002 32.7023 20.2002 32.101C20.2002 31.4996 20.6989 31.001 21.3002 31.001H29.7335C30.3349 31.001 30.8335 31.4996 30.8335 32.101Z" fill="white"/>
<path d="M37.3953 42.5142C36.2148 42.2604 35.2192 41.5226 34.6243 40.5224C34.226 39.8766 34 39.1125 34 38.3052C34 35.9266 35.9266 34 38.3052 34C40.6839 34 42.6105 35.9266 42.6105 38.3052V38.765" stroke="white" stroke-width="2" stroke-linecap="round" stroke-linejoin="round"/>
<path d="M41.085 38.5632L42.6104 40.0886L44.1358 38.5632" stroke="white" stroke-width="2" stroke-linecap="round" stroke-linejoin="round"/>
<defs>
<linearGradient id="paint0_linear_430_346" x1="37.3701" y1="80.2109" x2="81.7985" y2="30.3578" gradientUnits="userSpaceOnUse">
<stop stop-color="#005CAA"/>
<stop offset="1" stop-color="#00B5F0"/>
</linearGradient>
</defs>
</svg>
