<svg width="60" height="61" viewBox="0 0 60 61" fill="none" xmlns="http://www.w3.org/2000/svg">
<circle cx="30" cy="30.5" r="30" fill="url(#paint0_linear_430_314)"/>
<path d="M15.9053 25.6579C15.9053 25.11 16.3494 24.6658 16.8973 24.6658H23.8337V26.6499H16.8973C16.3494 26.6499 15.9053 26.2058 15.9053 25.6579Z" fill="white"/>
<rect opacity="0.3" x="16.8896" y="25.6586" width="6.94437" height="14.8808" fill="white"/>
<path opacity="0.4" fill-rule="evenodd" clip-rule="evenodd" d="M39.7068 17.7227H23.834V40.5399H29.2041V36.2141C29.2041 34.7968 30.353 33.6478 31.7704 33.6478C33.1877 33.6478 34.3367 34.7968 34.3367 36.2141V40.5399H35.5027L39.7068 36.1332V17.7227Z" fill="white"/>
<rect x="30.9434" y="22.1826" width="1.65278" height="7.44476" rx="0.826388" fill="white"/>
<rect x="35.4922" y="25.0787" width="1.65278" height="7.44476" rx="0.826388" transform="rotate(90 35.4922 25.0787)" fill="white"/>
<rect x="22.8418" y="16.7303" width="17.857" height="1.98411" rx="0.992053" fill="white"/>
<path d="M39.3333 35C36.3867 35 34 37.3867 34 40.3333C34 41.3333 34.28 42.28 34.7734 43.08C35.6934 44.6267 37.3867 45.6667 39.3333 45.6667C41.28 45.6667 42.9733 44.6267 43.8933 43.08C44.3866 42.28 44.6667 41.3333 44.6667 40.3333C44.6667 37.3867 42.28 35 39.3333 35ZM42.0933 39.76L39.2533 42.3867C39.0667 42.56 38.8133 42.6533 38.5733 42.6533C38.32 42.6533 38.0667 42.56 37.8667 42.36L36.5466 41.04C36.16 40.6533 36.16 40.0133 36.5466 39.6267C36.9333 39.24 37.5733 39.24 37.96 39.6267L38.6 40.2667L40.7333 38.2933C41.1333 37.92 41.7733 37.9467 42.1466 38.3467C42.52 38.7467 42.4933 39.3733 42.0933 39.76Z" fill="white"/>
<defs>
<linearGradient id="paint0_linear_430_314" x1="37.3701" y1="80.2109" x2="81.7985" y2="30.3578" gradientUnits="userSpaceOnUse">
<stop stop-color="#005CAA"/>
<stop offset="1" stop-color="#00B5F0"/>
</linearGradient>
</defs>
</svg>
