<svg width="60" height="61" viewBox="0 0 60 61" fill="none" xmlns="http://www.w3.org/2000/svg">
<circle cx="30" cy="30.5" r="30" fill="url(#paint0_linear_331_722)"/>
<path opacity="0.4" d="M22.9737 41.2667C24.067 40.0934 25.7337 40.1867 26.6937 41.4667L28.0403 43.2667C29.1203 44.6934 30.867 44.6934 31.947 43.2667L33.2937 41.4667C34.2537 40.1867 35.9203 40.0934 37.0137 41.2667C39.387 43.8001 41.3203 42.9601 41.3203 39.4134V24.3867C41.3337 19.0134 40.0803 17.6667 35.0403 17.6667H24.9603C19.9203 17.6667 18.667 19.0134 18.667 24.3867V39.4001C18.667 42.9601 20.6137 43.7867 22.9737 41.2667Z" fill="white"/>
<path d="M34.0003 33.6667C33.2537 33.6667 32.667 33.0667 32.667 32.3333C32.667 31.6 33.267 31 34.0003 31C34.7337 31 35.3337 31.6 35.3337 32.3333C35.3337 33.0667 34.747 33.6667 34.0003 33.6667Z" fill="white"/>
<path d="M26.0003 26.9999C25.2537 26.9999 24.667 26.3999 24.667 25.6666C24.667 24.9333 25.267 24.3333 26.0003 24.3333C26.7337 24.3333 27.3337 24.9333 27.3337 25.6666C27.3337 26.3999 26.747 26.9999 26.0003 26.9999Z" fill="white"/>
<path d="M25.5064 34.3999C25.2531 34.3999 24.9998 34.3066 24.7998 34.1066C24.4131 33.7199 24.4131 33.0799 24.7998 32.6933L33.7731 23.7199C34.1598 23.3333 34.7998 23.3333 35.1864 23.7199C35.5731 24.1066 35.5731 24.7466 35.1864 25.1333L26.2131 34.1066C26.0264 34.3066 25.7598 34.3999 25.5064 34.3999Z" fill="white"/>
<defs>
<linearGradient id="paint0_linear_331_722" x1="37.3701" y1="80.2109" x2="81.7985" y2="30.3578" gradientUnits="userSpaceOnUse">
<stop stop-color="#005CAA"/>
<stop offset="1" stop-color="#00B5F0"/>
</linearGradient>
</defs>
</svg>
