<svg width="129" height="55" viewBox="0 0 129 55" fill="none" xmlns="http://www.w3.org/2000/svg">
<path fill-rule="evenodd" clip-rule="evenodd" d="M43.8643 49.1476C44.0189 49.1476 44.1463 49.1536 44.2465 49.1657C44.3468 49.1777 44.4272 49.1948 44.4878 49.2168C44.5483 49.2389 44.5911 49.265 44.6162 49.2951C44.6413 49.3252 44.6538 49.3603 44.6538 49.4005V54.7592C44.6538 54.7993 44.6413 54.8344 44.6162 54.8645C44.5911 54.8946 44.5483 54.9197 44.4878 54.9398C44.4272 54.9599 44.3468 54.9749 44.2465 54.9849C44.1864 54.991 44.1165 54.9952 44.0368 54.9976L43.8643 55L43.6919 54.9976L43.5455 54.9904L43.4821 54.9849C43.3819 54.9749 43.3015 54.9599 43.2409 54.9398C43.1803 54.9197 43.1375 54.8946 43.1125 54.8645C43.0874 54.8344 43.0749 54.7993 43.0749 54.7592V49.4005C43.0749 49.3603 43.0874 49.3252 43.1125 49.2951C43.1375 49.265 43.1803 49.2389 43.2409 49.2168C43.3015 49.1948 43.3819 49.1777 43.4821 49.1657C43.5824 49.1536 43.7098 49.1476 43.8643 49.1476ZM39.6866 47.5829L39.8595 47.5853C39.9397 47.5877 40.0105 47.5919 40.0719 47.598C40.1742 47.608 40.2546 47.6241 40.3131 47.6461C40.3716 47.6682 40.4134 47.6953 40.4384 47.7274C40.4635 47.7595 40.476 47.7957 40.476 47.8358V49.034H41.6916C41.7333 49.034 41.7699 49.044 41.8012 49.0641C41.8325 49.0841 41.8587 49.1173 41.8795 49.1634C41.9004 49.2096 41.9161 49.2728 41.9265 49.3531C41.937 49.4334 41.9422 49.5317 41.9422 49.6481C41.9422 49.8689 41.9213 50.0264 41.8795 50.1208C41.8378 50.2151 41.7772 50.2623 41.6978 50.2623H40.476V52.785C40.476 53.0781 40.5241 53.2978 40.6201 53.4443C40.7162 53.5909 40.8875 53.6641 41.1339 53.6641C41.2175 53.6641 41.2927 53.6571 41.3595 53.643C41.4263 53.629 41.4858 53.6129 41.5381 53.5949L41.6696 53.5467C41.7051 53.5327 41.7375 53.5256 41.7668 53.5256C41.7918 53.5256 41.8158 53.5327 41.8388 53.5467C41.8618 53.5608 41.8795 53.5889 41.8921 53.631C41.9046 53.6731 41.9161 53.7303 41.9265 53.8026C41.937 53.8748 41.9422 53.9672 41.9422 54.0796C41.9422 54.2562 41.9307 54.3916 41.9077 54.486C41.8848 54.5803 41.8545 54.6465 41.8169 54.6847C41.7793 54.7228 41.7239 54.7569 41.6508 54.787C41.5777 54.8171 41.4921 54.8432 41.394 54.8653C41.2958 54.8874 41.1893 54.9044 41.0744 54.9165C40.9595 54.9285 40.8436 54.9345 40.7267 54.9345C40.4134 54.9345 40.1419 54.8964 39.9121 54.8201C39.6824 54.7439 39.4923 54.6265 39.342 54.4679C39.1916 54.3094 39.0809 54.1097 39.0099 53.8688C38.9389 53.628 38.9034 53.343 38.9034 53.0138V50.2623H38.2329C38.1536 50.2623 38.093 50.2151 38.0512 50.1208C38.0095 50.0264 37.9886 49.8689 37.9886 49.6481C37.9886 49.5317 37.9938 49.4334 38.0042 49.3531C38.0147 49.2728 38.0303 49.2096 38.0512 49.1634C38.0721 49.1173 38.0982 49.0841 38.1296 49.0641C38.1609 49.044 38.1974 49.034 38.2392 49.034H38.9034V47.8358C38.9034 47.7957 38.9148 47.7595 38.9378 47.7274C38.9608 47.6953 39.0026 47.6682 39.0631 47.6461C39.1237 47.6241 39.2052 47.608 39.3075 47.598C39.4098 47.5879 39.5362 47.5829 39.6866 47.5829ZM82.9786 46.8132C83.1707 46.8132 83.3628 46.8272 83.555 46.8553C83.7471 46.8834 83.9268 46.9216 84.0938 46.9697C84.2609 47.0179 84.4092 47.0721 84.5387 47.1323C84.6682 47.1925 84.7538 47.2427 84.7956 47.2828C84.8374 47.323 84.8656 47.3571 84.8802 47.3852C84.8948 47.4133 84.9073 47.4504 84.9178 47.4966C84.9282 47.5427 84.9355 47.6009 84.9397 47.6712L84.9444 47.7893L84.946 47.9331L84.9436 48.0942L84.9366 48.2281C84.9303 48.3084 84.9199 48.3746 84.9052 48.4268C84.8906 48.479 84.8697 48.5171 84.8426 48.5412C84.8154 48.5653 84.7789 48.5773 84.7329 48.5773C84.6947 48.5773 84.6375 48.5578 84.5615 48.5188L84.5136 48.4931C84.4134 48.4369 84.2902 48.3756 84.144 48.3094C83.9978 48.2432 83.8286 48.183 83.6365 48.1288C83.4443 48.0746 83.2334 48.0475 83.0036 48.0475C82.824 48.0475 82.6674 48.0686 82.5337 48.1107C82.4 48.1529 82.2883 48.2111 82.1985 48.2853C82.1087 48.3596 82.0418 48.4489 81.998 48.5533C81.9541 48.6576 81.9322 48.768 81.9322 48.8844C81.9322 49.057 81.9813 49.2065 82.0794 49.333C82.1776 49.4594 82.3092 49.5718 82.4742 49.6702C82.6392 49.7685 82.8261 49.8608 83.035 49.9471C83.2438 50.0334 83.4568 50.1247 83.674 50.2211C83.8913 50.3174 84.1043 50.4268 84.3131 50.5492C84.522 50.6716 84.7079 50.8182 84.8708 50.9888C85.0337 51.1594 85.1653 51.36 85.2655 51.5908C85.3658 51.8217 85.4159 52.0936 85.4159 52.4067C85.4159 52.8161 85.3365 53.1754 85.1778 53.4845C85.0191 53.7935 84.8039 54.0514 84.5324 54.2582C84.2609 54.4649 83.9435 54.6204 83.5801 54.7248C83.2167 54.8291 82.8282 54.8813 82.4146 54.8813C82.1348 54.8813 81.8748 54.8592 81.6346 54.8151C81.3944 54.7709 81.1824 54.7178 80.9986 54.6555C80.8148 54.5933 80.6613 54.5281 80.5381 54.4599C80.4149 54.3916 80.3261 54.3314 80.2718 54.2792C80.2175 54.227 80.1789 54.1518 80.1559 54.0534C80.1329 53.9551 80.1214 53.8136 80.1214 53.629C80.1214 53.5045 80.1256 53.4002 80.134 53.3159C80.1423 53.2316 80.1559 53.1633 80.1747 53.1111C80.1935 53.059 80.2185 53.0218 80.2499 52.9998C80.2812 52.9777 80.3177 52.9666 80.3595 52.9666C80.4083 52.9666 80.4737 52.9896 80.5558 53.0356L80.607 53.066C80.7135 53.1322 80.8503 53.2055 81.0174 53.2858C81.1845 53.366 81.384 53.4393 81.6158 53.5055C81.8476 53.5718 82.116 53.6049 82.4209 53.6049C82.6214 53.6049 82.801 53.5818 82.9598 53.5356C83.1185 53.4895 83.2532 53.4242 83.3639 53.34C83.4746 53.2557 83.5592 53.1513 83.6177 53.0269C83.6761 52.9024 83.7054 52.7639 83.7054 52.6114C83.7054 52.4348 83.6552 52.2833 83.555 52.1568C83.4547 52.0304 83.3242 51.918 83.1634 51.8197C83.0026 51.7213 82.8198 51.629 82.6151 51.5427C82.4105 51.4564 82.1995 51.3651 81.9823 51.2687C81.7651 51.1724 81.5542 51.063 81.3495 50.9406C81.1448 50.8182 80.9621 50.6716 80.8013 50.5011C80.6404 50.3305 80.5099 50.1288 80.4096 49.8959C80.3094 49.6631 80.2593 49.3842 80.2593 49.059C80.2593 48.6857 80.3313 48.3576 80.4754 48.0746C80.6196 47.7916 80.8138 47.5568 81.0581 47.3701C81.3025 47.1835 81.5907 47.044 81.9228 46.9517C82.2549 46.8594 82.6068 46.8132 82.9786 46.8132ZM72.0471 46.3804L72.1365 46.3797C72.2911 46.3797 72.4185 46.3857 72.5187 46.3977C72.619 46.4098 72.6983 46.4268 72.7568 46.4489C72.8153 46.471 72.8571 46.4981 72.8821 46.5302C72.9072 46.5623 72.9197 46.5984 72.9197 46.6386V54.5381C72.9197 54.5823 72.9093 54.6194 72.8884 54.6495C72.8675 54.6796 72.832 54.7047 72.7819 54.7248C72.7318 54.7448 72.6639 54.7589 72.5783 54.7669C72.4926 54.775 72.3872 54.779 72.2618 54.779C72.1282 54.779 72.0196 54.775 71.936 54.7669C71.8525 54.7589 71.7846 54.7448 71.7324 54.7248C71.6802 54.7047 71.6426 54.6796 71.6196 54.6495C71.5966 54.6194 71.5852 54.5823 71.5852 54.5381V53.942C71.2969 54.2391 70.9951 54.4699 70.6798 54.6345C70.3644 54.799 70.0146 54.8813 69.6303 54.8813C69.2042 54.8813 68.8439 54.8021 68.5494 54.6435C68.255 54.4849 68.0148 54.2712 67.8289 54.0023C67.643 53.7333 67.5083 53.4192 67.4248 53.06C67.3412 52.7007 67.2995 52.3224 67.2995 51.925C67.2995 51.4473 67.3527 51.0179 67.4592 50.6365C67.5657 50.2552 67.7213 49.9301 67.926 49.6611C68.1307 49.3922 68.3855 49.1855 68.6904 49.041C68.9954 48.8965 69.3462 48.8242 69.7431 48.8242C70.0563 48.8242 70.3404 48.8854 70.5952 49.0078C70.85 49.1303 71.1027 49.3099 71.3533 49.5467V46.6386C71.3533 46.5984 71.3648 46.5623 71.3878 46.5302C71.4108 46.4981 71.4525 46.471 71.5131 46.4489C71.5737 46.4268 71.6541 46.4098 71.7543 46.3977C71.8345 46.3881 71.9321 46.3823 72.0471 46.3804ZM54.8655 48.8242C55.041 48.8242 55.2112 48.8363 55.3762 48.8603C55.5412 48.8844 55.6905 48.9145 55.8242 48.9506C55.9579 48.9868 56.0706 49.0259 56.1625 49.0681L56.2603 49.1157C56.3029 49.1381 56.3361 49.1584 56.3599 49.1764C56.3996 49.2065 56.4278 49.2366 56.4445 49.2668C56.4612 49.2969 56.4737 49.333 56.4821 49.3751C56.4904 49.4173 56.4977 49.4695 56.504 49.5317C56.5087 49.5783 56.5117 49.6335 56.5128 49.6971L56.5134 49.7635C56.5134 49.8719 56.5103 49.9602 56.504 50.0284C56.4977 50.0966 56.4873 50.1508 56.4727 50.191C56.4581 50.2311 56.4382 50.2582 56.4132 50.2723C56.3881 50.2863 56.3589 50.2933 56.3254 50.2933C56.2954 50.2933 56.2519 50.2798 56.1951 50.2529L56.15 50.2301C56.0706 50.188 55.9714 50.1428 55.8524 50.0946C55.7333 50.0465 55.5955 50.0013 55.4389 49.9592C55.2822 49.917 55.1036 49.8959 54.9031 49.8959C54.7611 49.8959 54.6379 49.91 54.5335 49.9381C54.429 49.9662 54.3434 50.0063 54.2766 50.0585C54.2097 50.1107 54.1596 50.1719 54.1262 50.2421C54.0928 50.3124 54.0761 50.3877 54.0761 50.4679C54.0761 50.5924 54.1158 50.6967 54.1951 50.781C54.2745 50.8653 54.3789 50.9396 54.5084 51.0038C54.6055 51.052 54.7126 51.0979 54.8297 51.1415L54.9501 51.1844C55.1151 51.2406 55.2822 51.3018 55.4514 51.3681C55.6206 51.4343 55.7876 51.5116 55.9526 51.5999C56.1176 51.6882 56.2649 51.7966 56.3944 51.925C56.5239 52.0535 56.6283 52.207 56.7076 52.3856C56.787 52.5642 56.8267 52.776 56.8267 53.0208C56.8267 53.3259 56.7672 53.5948 56.6481 53.8276C56.5291 54.0605 56.3609 54.2551 56.1437 54.4117C55.9265 54.5682 55.6696 54.6856 55.3731 54.7639C55.0765 54.8422 54.7549 54.8813 54.4082 54.8813C54.1993 54.8813 53.9998 54.8663 53.8098 54.8362C53.6197 54.8061 53.4495 54.7679 53.2991 54.7218C53.1488 54.6756 53.0234 54.6284 52.9232 54.5803C52.8229 54.5321 52.7498 54.4869 52.7039 54.4448C52.6579 54.4027 52.6225 54.3364 52.5974 54.2461C52.5723 54.1558 52.5598 54.0223 52.5598 53.8457C52.5598 53.7293 52.564 53.636 52.5723 53.5657C52.5807 53.4955 52.5932 53.4393 52.6099 53.3972C52.6266 53.355 52.6475 53.3269 52.6726 53.3129C52.6976 53.2988 52.729 53.2918 52.7666 53.2918C52.8033 53.2918 52.8541 53.3078 52.9189 53.34L52.9702 53.3671C53.06 53.4172 53.1717 53.4724 53.3054 53.5326C53.4391 53.5928 53.5947 53.649 53.7722 53.7012C53.9497 53.7534 54.1513 53.7795 54.3768 53.7795C54.5188 53.7795 54.6452 53.7654 54.7559 53.7373C54.8666 53.7092 54.9627 53.6691 55.0441 53.6169C55.1256 53.5647 55.1872 53.4985 55.229 53.4182C55.2707 53.3379 55.2916 53.2456 55.2916 53.1413C55.2916 53.0208 55.253 52.9175 55.1757 52.8312C55.0984 52.7449 54.9961 52.6696 54.8687 52.6054C54.7731 52.5572 54.6682 52.5113 54.5538 52.4677L54.4364 52.4248C54.2755 52.3686 54.1105 52.3063 53.9414 52.2381C53.7722 52.1699 53.6072 52.0916 53.4464 52.0033C53.2856 51.915 53.1414 51.8066 53.014 51.6782C52.8866 51.5497 52.7843 51.3952 52.707 51.2145C52.6298 51.0339 52.5911 50.8172 52.5911 50.5643C52.5911 50.3074 52.6433 50.0716 52.7478 49.8568C52.8522 49.6421 53.0026 49.4584 53.1989 49.3059C53.3952 49.1534 53.6343 49.0349 53.9163 48.9506C54.1983 48.8664 54.5147 48.8242 54.8655 48.8242ZM91.955 48.8242C92.1304 48.8242 92.3006 48.8363 92.4656 48.8603C92.6306 48.8844 92.7799 48.9145 92.9136 48.9506C93.0473 48.9868 93.16 49.0259 93.2519 49.0681C93.3438 49.1102 93.4096 49.1463 93.4493 49.1764C93.489 49.2065 93.5172 49.2366 93.5339 49.2668C93.5506 49.2969 93.5631 49.333 93.5715 49.3751C93.5798 49.4173 93.5872 49.4695 93.5934 49.5317C93.5981 49.5783 93.6011 49.6335 93.6022 49.6971L93.6028 49.7635C93.6028 49.8719 93.5997 49.9602 93.5934 50.0284C93.5872 50.0966 93.5767 50.1508 93.5621 50.191C93.5475 50.2311 93.5276 50.2582 93.5026 50.2723C93.4775 50.2863 93.4483 50.2933 93.4149 50.2933C93.3848 50.2933 93.3413 50.2798 93.2845 50.2529L93.2394 50.2301C93.1601 50.188 93.0609 50.1428 92.9418 50.0946C92.8228 50.0465 92.6849 50.0013 92.5283 49.9592C92.3716 49.917 92.1931 49.8959 91.9926 49.8959C91.8505 49.8959 91.7273 49.91 91.6229 49.9381C91.5185 49.9662 91.4328 50.0063 91.366 50.0585C91.2992 50.1107 91.249 50.1719 91.2156 50.2421C91.1822 50.3124 91.1655 50.3877 91.1655 50.4679C91.1655 50.5924 91.2052 50.6967 91.2845 50.781C91.3639 50.8653 91.4683 50.9396 91.5978 51.0038C91.7273 51.068 91.8746 51.1282 92.0396 51.1844C92.2045 51.2406 92.3716 51.3018 92.5408 51.3681C92.71 51.4343 92.8771 51.5116 93.042 51.5999C93.207 51.6882 93.3543 51.7966 93.4838 51.925C93.6133 52.0535 93.7177 52.207 93.7971 52.3856C93.8764 52.5642 93.9161 52.776 93.9161 53.0208C93.9161 53.3259 93.8566 53.5948 93.7375 53.8276C93.6185 54.0605 93.4504 54.2551 93.2331 54.4117C93.0159 54.5682 92.7591 54.6856 92.4625 54.7639C92.1659 54.8422 91.8443 54.8813 91.4976 54.8813C91.2887 54.8813 91.0893 54.8663 90.8992 54.8362C90.7091 54.8061 90.5389 54.7679 90.3886 54.7218C90.2382 54.6756 90.1129 54.6284 90.0126 54.5803C89.9124 54.5321 89.8393 54.4869 89.7933 54.4448C89.7474 54.4027 89.7119 54.3364 89.6868 54.2461C89.6617 54.1558 89.6492 54.0223 89.6492 53.8457C89.6492 53.7293 89.6534 53.636 89.6617 53.5657C89.6701 53.4955 89.6826 53.4393 89.6993 53.3972C89.716 53.355 89.7369 53.3269 89.762 53.3129C89.787 53.2988 89.8184 53.2918 89.856 53.2918C89.8927 53.2918 89.9435 53.3078 90.0083 53.34L90.0596 53.3671C90.1494 53.4172 90.2611 53.4724 90.3948 53.5326C90.5285 53.5928 90.6841 53.649 90.8616 53.7012C91.0391 53.7534 91.2407 53.7795 91.4662 53.7795C91.6083 53.7795 91.7346 53.7654 91.8453 53.7373C91.956 53.7092 92.0521 53.6691 92.1335 53.6169C92.215 53.5647 92.2766 53.4985 92.3184 53.4182C92.3601 53.3379 92.381 53.2456 92.381 53.1413C92.381 53.0208 92.3424 52.9175 92.2651 52.8312C92.1878 52.7449 92.0855 52.6696 91.9581 52.6054C91.8625 52.5572 91.7576 52.5113 91.6432 52.4677L91.5258 52.4248C91.3649 52.3686 91.2 52.3063 91.0308 52.2381C90.8616 52.1699 90.6966 52.0916 90.5358 52.0033C90.375 51.915 90.2309 51.8066 90.1035 51.6782C89.9761 51.5497 89.8737 51.3952 89.7965 51.2145C89.7192 51.0339 89.6805 50.8172 89.6805 50.5643C89.6805 50.3074 89.7327 50.0716 89.8372 49.8568C89.9416 49.6421 90.092 49.4584 90.2883 49.3059C90.4846 49.1534 90.7238 49.0349 91.0057 48.9506C91.2877 48.8664 91.6041 48.8242 91.955 48.8242ZM120.863 46.3804L120.953 46.3797C121.108 46.3797 121.235 46.3857 121.335 46.3977C121.435 46.4098 121.515 46.4268 121.573 46.4489C121.632 46.471 121.674 46.4981 121.699 46.5302C121.724 46.5623 121.736 46.5984 121.736 46.6386V54.5381C121.736 54.5823 121.726 54.6194 121.705 54.6495C121.684 54.6796 121.648 54.7047 121.598 54.7248C121.548 54.7448 121.48 54.7589 121.395 54.7669C121.309 54.775 121.204 54.779 121.078 54.779C120.945 54.779 120.836 54.775 120.752 54.7669C120.669 54.7589 120.601 54.7448 120.549 54.7248C120.497 54.7047 120.459 54.6796 120.436 54.6495C120.413 54.6194 120.402 54.5823 120.402 54.5381V53.942C120.113 54.2391 119.812 54.4699 119.496 54.6345C119.181 54.799 118.831 54.8813 118.447 54.8813C118.021 54.8813 117.66 54.8021 117.366 54.6435C117.071 54.4849 116.831 54.2712 116.645 54.0023C116.459 53.7333 116.325 53.4192 116.241 53.06C116.158 52.7007 116.116 52.3224 116.116 51.925C116.116 51.4473 116.169 51.0179 116.276 50.6365C116.382 50.2552 116.538 49.9301 116.742 49.6611C116.947 49.3922 117.202 49.1855 117.507 49.041C117.812 48.8965 118.163 48.8242 118.559 48.8242C118.873 48.8242 119.157 48.8854 119.412 49.0078C119.666 49.1303 119.919 49.3099 120.17 49.5467V46.6386C120.17 46.5984 120.181 46.5623 120.204 46.5302C120.227 46.4981 120.269 46.471 120.33 46.4489C120.39 46.4268 120.471 46.4098 120.571 46.3977C120.651 46.3881 120.749 46.3823 120.863 46.3804ZM8.12551 46.8132C8.31765 46.8132 8.5098 46.8272 8.70195 46.8553C8.89409 46.8834 9.07371 46.9216 9.24079 46.9697C9.40788 47.0179 9.55616 47.0721 9.68565 47.1323C9.81514 47.1925 9.90077 47.2427 9.94254 47.2828C9.98432 47.323 10.0125 47.3571 10.0271 47.3852C10.0417 47.4133 10.0543 47.4504 10.0647 47.4966C10.0752 47.5427 10.0825 47.6009 10.0867 47.6712L10.0914 47.7893L10.0929 47.9331C10.0929 48.0495 10.0898 48.1478 10.0835 48.2281C10.0773 48.3084 10.0668 48.3746 10.0522 48.4268C10.0376 48.479 10.0167 48.5171 9.98954 48.5412C9.96238 48.5653 9.92584 48.5773 9.87989 48.5773C9.8416 48.5773 9.78445 48.5578 9.70845 48.5188L9.66059 48.4931C9.56034 48.4369 9.43712 48.3756 9.29092 48.3094C9.14472 48.2432 8.97555 48.183 8.7834 48.1288C8.59125 48.0746 8.38031 48.0475 8.15057 48.0475C7.97095 48.0475 7.81431 48.0686 7.68065 48.1107C7.54698 48.1529 7.43524 48.2111 7.34544 48.2853C7.25563 48.3596 7.18879 48.4489 7.14493 48.5533C7.10107 48.6576 7.07914 48.768 7.07914 48.8844C7.07914 49.057 7.12823 49.2065 7.22639 49.333C7.32455 49.4594 7.45613 49.5718 7.62112 49.6702C7.78612 49.7685 7.97304 49.8608 8.1819 49.9471C8.39075 50.0334 8.60378 50.1247 8.82099 50.2211C9.0382 50.3174 9.25123 50.4268 9.46009 50.5492C9.66894 50.6716 9.85482 50.8182 10.0177 50.9888C10.1806 51.1594 10.3122 51.36 10.4125 51.5908C10.5127 51.8217 10.5628 52.0936 10.5628 52.4067C10.5628 52.8161 10.4835 53.1754 10.3247 53.4845C10.166 53.7935 9.9509 54.0514 9.67939 54.2582C9.40788 54.4649 9.09042 54.6204 8.72701 54.7248C8.3636 54.8291 7.97513 54.8813 7.5616 54.8813C7.28173 54.8813 7.02171 54.8592 6.78153 54.8151C6.54134 54.7709 6.32936 54.7178 6.14556 54.6555C5.96177 54.5933 5.80826 54.5281 5.68504 54.4599C5.56181 54.3916 5.47305 54.3314 5.41875 54.2792C5.36445 54.227 5.32581 54.1518 5.30283 54.0534C5.27986 53.9551 5.26837 53.8136 5.26837 53.629C5.26837 53.5045 5.27255 53.4002 5.28091 53.3159C5.28926 53.2316 5.30283 53.1633 5.32163 53.1111C5.34043 53.059 5.36549 53.0218 5.39682 52.9998C5.42815 52.9777 5.4647 52.9666 5.50647 52.9666C5.5552 52.9666 5.62061 52.9896 5.7027 53.0356L5.75396 53.066C5.86048 53.1322 5.99728 53.2055 6.16436 53.2858C6.33145 53.366 6.5309 53.4393 6.76273 53.5055C6.99456 53.5718 7.26294 53.6049 7.56786 53.6049C7.76837 53.6049 7.94798 53.5818 8.10671 53.5356C8.26544 53.4895 8.40015 53.4242 8.51084 53.34C8.62154 53.2557 8.70612 53.1513 8.7646 53.0269C8.82308 52.9024 8.85232 52.7639 8.85232 52.6114C8.85232 52.4348 8.8022 52.2833 8.70195 52.1568C8.6017 52.0304 8.47116 51.918 8.31034 51.8197C8.14952 51.7213 7.96678 51.629 7.7621 51.5427C7.55742 51.4564 7.34648 51.3651 7.12927 51.2687C6.91206 51.1724 6.70112 51.063 6.49644 50.9406C6.29176 50.8182 6.10901 50.6716 5.9482 50.5011C5.78738 50.3305 5.65684 50.1288 5.55659 49.8959C5.45634 49.6631 5.40622 49.3842 5.40622 49.059C5.40622 48.6857 5.47827 48.3576 5.62238 48.0746C5.76649 47.7916 5.96073 47.5568 6.20509 47.3701C6.44945 47.1835 6.73767 47.044 7.06975 46.9517C7.40183 46.8594 7.75374 46.8132 8.12551 46.8132ZM60.4283 48.8242C60.8669 48.8242 61.2418 48.8653 61.553 48.9476C61.8642 49.0299 62.12 49.1564 62.3205 49.327C62.521 49.4976 62.6672 49.7173 62.7591 49.9863C62.851 50.2552 62.897 50.5743 62.897 50.9436V54.5562C62.897 54.6124 62.8761 54.6565 62.8343 54.6887C62.7925 54.7208 62.7268 54.7438 62.637 54.7579C62.5621 54.7696 62.4575 54.7764 62.3232 54.7784L62.2391 54.779C62.0511 54.779 61.9143 54.7719 61.8287 54.7579C61.743 54.7438 61.6825 54.7208 61.647 54.6887C61.6115 54.6565 61.5937 54.6124 61.5937 54.5562V54.1287C61.364 54.3655 61.1019 54.5502 60.8074 54.6826C60.5129 54.8151 60.186 54.8813 59.8268 54.8813C59.5302 54.8813 59.2577 54.8442 59.0091 54.7699C58.7606 54.6957 58.5455 54.5853 58.3638 54.4388C58.1821 54.2923 58.0411 54.1106 57.9408 53.8939C57.8406 53.6771 57.7905 53.4242 57.7905 53.1352C57.7905 52.8221 57.8542 52.5502 57.9816 52.3194C58.109 52.0886 58.299 51.8979 58.5517 51.7474C58.8045 51.5969 59.1188 51.4855 59.4947 51.4132C59.8707 51.341 60.3072 51.3049 60.8042 51.3049H61.3494V50.9797C61.3494 50.8111 61.3316 50.6636 61.2961 50.5372C61.2606 50.4107 61.2021 50.3054 61.1207 50.2211C61.0392 50.1368 60.9306 50.0746 60.7948 50.0344C60.6591 49.9943 60.491 49.9742 60.2905 49.9742C60.0273 49.9742 59.7923 50.0023 59.5856 50.0585C59.3788 50.1147 59.1961 50.1769 59.0373 50.2452C58.8786 50.3134 58.746 50.3756 58.6395 50.4318C58.533 50.488 58.4463 50.5161 58.3794 50.5161C58.3335 50.5161 58.2928 50.5021 58.2573 50.474C58.2218 50.4459 58.1925 50.4057 58.1695 50.3535C58.1466 50.3014 58.1288 50.2371 58.1163 50.1609C58.1038 50.0846 58.0975 50.0003 58.0975 49.908C58.0975 49.7836 58.1079 49.6852 58.1288 49.613C58.1497 49.5407 58.1894 49.4755 58.2479 49.4173C58.3063 49.3591 58.4087 49.2948 58.5549 49.2246C58.7011 49.1544 58.8723 49.0891 59.0687 49.0289C59.265 48.9687 59.4791 48.9195 59.7109 48.8814C59.9427 48.8433 60.1819 48.8242 60.4283 48.8242ZM27.7398 48.8242C28.1784 48.8242 28.5533 48.8653 28.8645 48.9476C29.1757 49.0299 29.4316 49.1564 29.6321 49.327C29.8326 49.4976 29.9788 49.7173 30.0707 49.9863C30.1626 50.2552 30.2085 50.5743 30.2085 50.9436V54.5562C30.2085 54.6124 30.1876 54.6565 30.1458 54.6887C30.1041 54.7208 30.0383 54.7438 29.9485 54.7579C29.8736 54.7696 29.7691 54.7764 29.6348 54.7784L29.5506 54.779C29.3626 54.779 29.2258 54.7719 29.1402 54.7579C29.0546 54.7438 28.994 54.7208 28.9585 54.6887C28.923 54.6565 28.9052 54.6124 28.9052 54.5562V54.1287C28.6755 54.3655 28.4134 54.5502 28.1189 54.6826C27.8244 54.8151 27.4976 54.8813 27.1383 54.8813C26.8418 54.8813 26.5692 54.8442 26.3207 54.7699C26.0721 54.6957 25.857 54.5853 25.6753 54.4388C25.4936 54.2923 25.3526 54.1106 25.2524 53.8939C25.1521 53.6771 25.102 53.4242 25.102 53.1352C25.102 52.8221 25.1657 52.5502 25.2931 52.3194C25.4205 52.0886 25.6106 51.8979 25.8633 51.7474C26.116 51.5969 26.4303 51.4855 26.8063 51.4132C27.1822 51.341 27.6187 51.3049 28.1158 51.3049H28.6609V50.9797C28.6609 50.8111 28.6431 50.6636 28.6076 50.5372C28.5721 50.4107 28.5136 50.3054 28.4322 50.2211C28.3507 50.1368 28.2421 50.0746 28.1064 50.0344C27.9706 49.9943 27.8025 49.9742 27.602 49.9742C27.3388 49.9742 27.1039 50.0023 26.8971 50.0585C26.6903 50.1147 26.5076 50.1769 26.3489 50.2452C26.1901 50.3134 26.0575 50.3756 25.951 50.4318C25.8445 50.488 25.7578 50.5161 25.691 50.5161C25.645 50.5161 25.6043 50.5021 25.5688 50.474C25.5333 50.4459 25.5041 50.4057 25.4811 50.3535C25.4581 50.3014 25.4403 50.2371 25.4278 50.1609C25.4153 50.0846 25.409 50.0003 25.409 49.908C25.409 49.7836 25.4195 49.6852 25.4403 49.613C25.4612 49.5407 25.5009 49.4755 25.5594 49.4173C25.6179 49.3591 25.7202 49.2948 25.8664 49.2246C26.0126 49.1544 26.1839 49.0891 26.3802 49.0289C26.5765 48.9687 26.7906 48.9195 27.0224 48.8814C27.2543 48.8433 27.4934 48.8242 27.7398 48.8242ZM125.739 48.8242C126.177 48.8242 126.552 48.8653 126.863 48.9476C127.175 49.0299 127.431 49.1564 127.631 49.327C127.832 49.4976 127.978 49.7173 128.07 49.9863C128.161 50.2552 128.207 50.5743 128.207 50.9436V54.5562C128.207 54.6124 128.187 54.6565 128.145 54.6887C128.103 54.7208 128.037 54.7438 127.947 54.7579C127.873 54.7696 127.768 54.7764 127.634 54.7784L127.55 54.779C127.362 54.779 127.225 54.7719 127.139 54.7579C127.054 54.7438 126.993 54.7208 126.957 54.6887C126.922 54.6565 126.904 54.6124 126.904 54.5562V54.1287C126.674 54.3655 126.412 54.5502 126.118 54.6826C125.823 54.8151 125.497 54.8813 125.137 54.8813C124.841 54.8813 124.568 54.8442 124.32 54.7699C124.071 54.6957 123.856 54.5853 123.674 54.4388C123.493 54.2923 123.352 54.1106 123.251 53.8939C123.151 53.6771 123.101 53.4242 123.101 53.1352C123.101 52.8221 123.165 52.5502 123.292 52.3194C123.419 52.0886 123.61 51.8979 123.862 51.7474C124.115 51.5969 124.429 51.4855 124.805 51.4132C125.181 51.341 125.618 51.3049 126.115 51.3049H126.66V50.9797C126.66 50.8111 126.642 50.6636 126.607 50.5372C126.571 50.4107 126.513 50.3054 126.431 50.2211C126.35 50.1368 126.241 50.0746 126.105 50.0344C125.97 49.9943 125.801 49.9742 125.601 49.9742C125.338 49.9742 125.103 50.0023 124.896 50.0585C124.689 50.1147 124.507 50.1769 124.348 50.2452C124.189 50.3134 124.056 50.3756 123.95 50.4318C123.843 50.488 123.757 50.5161 123.69 50.5161C123.644 50.5161 123.603 50.5021 123.568 50.474C123.532 50.4459 123.503 50.4057 123.48 50.3535C123.457 50.3014 123.439 50.2371 123.427 50.1609C123.414 50.0846 123.408 50.0003 123.408 49.908C123.408 49.7836 123.418 49.6852 123.439 49.613C123.46 49.5407 123.5 49.4755 123.558 49.4173C123.617 49.3591 123.719 49.2948 123.865 49.2246C124.012 49.1544 124.183 49.0891 124.379 49.0289C124.575 48.9687 124.79 48.9195 125.021 48.8814C125.253 48.8433 125.492 48.8242 125.739 48.8242ZM48.7263 48.8242C49.1649 48.8242 49.5398 48.8653 49.851 48.9476C50.1622 49.0299 50.4181 49.1564 50.6186 49.327C50.8191 49.4976 50.9653 49.7173 51.0572 49.9863C51.1491 50.2552 51.195 50.5743 51.195 50.9436V54.5562C51.195 54.6124 51.1741 54.6565 51.1324 54.6887C51.0906 54.7208 51.0248 54.7438 50.935 54.7579C50.8601 54.7696 50.7556 54.7764 50.6213 54.7784L50.5371 54.779C50.3492 54.779 50.2124 54.7719 50.1267 54.7579C50.0411 54.7438 49.9805 54.7208 49.945 54.6887C49.9095 54.6565 49.8918 54.6124 49.8918 54.5562V54.1287C49.662 54.3655 49.3999 54.5502 49.1054 54.6826C48.8109 54.8151 48.4841 54.8813 48.1248 54.8813C47.8283 54.8813 47.5557 54.8442 47.3072 54.7699C47.0586 54.6957 46.8435 54.5853 46.6618 54.4388C46.4801 54.2923 46.3391 54.1106 46.2389 53.8939C46.1386 53.6771 46.0885 53.4242 46.0885 53.1352C46.0885 52.8221 46.1522 52.5502 46.2796 52.3194C46.407 52.0886 46.5971 51.8979 46.8498 51.7474C47.1025 51.5969 47.4168 51.4855 47.7928 51.4132C48.1687 51.341 48.6052 51.3049 49.1023 51.3049H49.6474V50.9797C49.6474 50.8111 49.6296 50.6636 49.5941 50.5372C49.5586 50.4107 49.5002 50.3054 49.4187 50.2211C49.3372 50.1368 49.2286 50.0746 49.0929 50.0344C48.9571 49.9943 48.789 49.9742 48.5885 49.9742C48.3253 49.9742 48.0904 50.0023 47.8836 50.0585C47.6769 50.1147 47.4941 50.1769 47.3354 50.2452C47.1766 50.3134 47.044 50.3756 46.9375 50.4318C46.831 50.488 46.7443 50.5161 46.6775 50.5161C46.6315 50.5161 46.5908 50.5021 46.5553 50.474C46.5198 50.4459 46.4906 50.4057 46.4676 50.3535C46.4446 50.3014 46.4269 50.2371 46.4143 50.1609C46.4018 50.0846 46.3955 50.0003 46.3955 49.908C46.3955 49.7836 46.406 49.6852 46.4269 49.613C46.4477 49.5407 46.4874 49.4755 46.5459 49.4173C46.6044 49.3591 46.7067 49.2948 46.8529 49.2246C46.9991 49.1544 47.1704 49.0891 47.3667 49.0289C47.563 48.9687 47.7771 48.9195 48.0089 48.8814C48.2408 48.8433 48.4799 48.8242 48.7263 48.8242ZM14.3775 48.8242C14.8453 48.8242 15.2453 48.8904 15.5774 49.0229C15.9094 49.1554 16.182 49.339 16.395 49.5738C16.6081 49.8086 16.7647 50.0866 16.8649 50.4077C16.9652 50.7289 17.0153 51.0781 17.0153 51.4554V51.6962C17.0153 51.8809 16.9725 52.0173 16.8869 52.1056C16.8012 52.194 16.6832 52.2381 16.5329 52.2381H13.1306C13.1306 52.4669 13.1588 52.6746 13.2152 52.8613C13.2716 53.0479 13.3614 53.2065 13.4846 53.3369C13.6079 53.4674 13.7666 53.5667 13.9608 53.635C14.1551 53.7032 14.3879 53.7373 14.6594 53.7373C14.9351 53.7373 15.1774 53.7183 15.3863 53.6801C15.5951 53.642 15.7758 53.5999 15.9282 53.5537L16.0987 53.5002L16.244 53.4506L16.3073 53.4273C16.4076 53.3891 16.489 53.3701 16.5517 53.3701C16.5893 53.3701 16.6206 53.3771 16.6457 53.3911C16.6707 53.4052 16.6916 53.4303 16.7083 53.4664C16.725 53.5025 16.7365 53.5537 16.7428 53.6199C16.7475 53.6696 16.7504 53.7289 16.7516 53.7977L16.7522 53.8698C16.7522 53.9581 16.7501 54.0334 16.7459 54.0956C16.7417 54.1578 16.7355 54.211 16.7271 54.2551C16.7187 54.2993 16.7062 54.3364 16.6895 54.3665C16.6728 54.3966 16.6509 54.4257 16.6237 54.4538C16.5966 54.4819 16.5224 54.5201 16.4013 54.5682C16.2802 54.6164 16.1256 54.6636 15.9376 54.7097C15.7497 54.7559 15.5345 54.796 15.2923 54.8301C15.05 54.8643 14.791 54.8813 14.5153 54.8813C14.0183 54.8813 13.5828 54.8211 13.2089 54.7007C12.8351 54.5803 12.5229 54.3976 12.2722 54.1528C12.0216 53.9079 11.8347 53.5989 11.7115 53.2255C11.5882 52.8522 11.5266 52.4147 11.5266 51.913C11.5266 51.4353 11.5914 51.0048 11.7209 50.6215C11.8503 50.2381 12.0383 49.913 12.2848 49.6461C12.5312 49.3791 12.8309 49.1754 13.1839 49.0349C13.5368 48.8945 13.9347 48.8242 14.3775 48.8242ZM112.715 48.8242C113.095 48.8242 113.415 48.8844 113.677 49.0048C113.938 49.1253 114.149 49.2888 114.309 49.4955C114.47 49.7023 114.586 49.9441 114.657 50.2211C114.728 50.498 114.764 50.8312 114.764 51.2206V54.5381C114.764 54.5783 114.751 54.6134 114.726 54.6435C114.701 54.6736 114.659 54.6987 114.601 54.7188C114.542 54.7388 114.462 54.7539 114.36 54.7639C114.278 54.7719 114.18 54.7768 114.068 54.7784L113.98 54.779C113.826 54.779 113.697 54.7739 113.595 54.7639C113.493 54.7539 113.412 54.7388 113.354 54.7188C113.295 54.6987 113.254 54.6736 113.229 54.6435C113.203 54.6134 113.191 54.5783 113.191 54.5381V51.4734C113.191 51.2125 113.171 51.0078 113.131 50.8593C113.092 50.7108 113.034 50.5833 112.959 50.477C112.884 50.3706 112.787 50.2883 112.668 50.2301C112.549 50.1719 112.41 50.1428 112.251 50.1428C112.051 50.1428 111.848 50.213 111.643 50.3535C111.439 50.494 111.226 50.6987 111.004 50.9677V54.5381C111.004 54.5783 110.992 54.6134 110.967 54.6435C110.942 54.6736 110.899 54.6987 110.838 54.7188C110.778 54.7388 110.697 54.7539 110.597 54.7639C110.517 54.7719 110.419 54.7768 110.304 54.7784L110.215 54.779C110.06 54.779 109.933 54.7739 109.833 54.7639C109.732 54.7539 109.652 54.7388 109.591 54.7188C109.531 54.6987 109.488 54.6736 109.463 54.6435C109.438 54.6134 109.425 54.5783 109.425 54.5381V49.1674C109.425 49.1273 109.436 49.0921 109.457 49.062C109.478 49.0319 109.515 49.0068 109.569 48.9868C109.624 48.9667 109.694 48.9516 109.779 48.9416C109.865 48.9316 109.973 48.9266 110.102 48.9266L110.251 48.929C110.321 48.9314 110.381 48.9356 110.434 48.9416C110.522 48.9516 110.59 48.9667 110.638 48.9868C110.686 49.0068 110.72 49.0319 110.741 49.062C110.762 49.0921 110.772 49.1273 110.772 49.1674V49.7876C111.082 49.4664 111.396 49.2256 111.715 49.065C112.035 48.9045 112.368 48.8242 112.715 48.8242ZM104.455 46.9158L104.847 46.9172L105.147 46.9246C105.293 46.9306 105.407 46.9447 105.488 46.9667C105.57 46.9888 105.628 47.0219 105.664 47.0661C105.691 47.0992 105.714 47.1413 105.735 47.1925L108.261 54.1528C108.311 54.2973 108.342 54.4117 108.355 54.496C108.368 54.5803 108.351 54.6435 108.305 54.6856C108.259 54.7278 108.177 54.7539 108.061 54.7639C107.983 54.7706 107.885 54.7751 107.768 54.7773L107.578 54.779C107.365 54.779 107.199 54.776 107.08 54.7699C106.961 54.7639 106.87 54.7519 106.807 54.7338C106.745 54.7157 106.701 54.6907 106.676 54.6585C106.651 54.6264 106.63 54.5843 106.613 54.5321L106.068 52.9666H103.023L102.509 54.49C102.492 54.5462 102.471 54.5933 102.443 54.6315C102.416 54.6696 102.372 54.6997 102.312 54.7218C102.251 54.7438 102.166 54.7589 102.055 54.7669L101.938 54.7734L101.8 54.7774L101.619 54.779C101.427 54.779 101.277 54.7729 101.168 54.7609C101.06 54.7489 100.985 54.7198 100.943 54.6736C100.901 54.6274 100.886 54.5622 100.899 54.4779C100.911 54.3936 100.943 54.2812 100.993 54.1407L103.493 47.2286C103.518 47.1604 103.547 47.1052 103.581 47.0631C103.614 47.0209 103.667 46.9888 103.74 46.9667C103.813 46.9447 103.915 46.9306 104.044 46.9246L104.27 46.9178L104.455 46.9158ZM96.014 48.9266C96.1685 48.9266 96.2959 48.9326 96.3962 48.9446C96.4964 48.9567 96.5768 48.9737 96.6374 48.9958C96.698 49.0179 96.7408 49.044 96.7658 49.0741C96.7909 49.1042 96.8034 49.1393 96.8034 49.1794V54.5381C96.8034 54.5783 96.7909 54.6134 96.7658 54.6435C96.7408 54.6736 96.698 54.6987 96.6374 54.7188C96.5768 54.7388 96.4964 54.7539 96.3962 54.7639C96.316 54.7719 96.2184 54.7768 96.1034 54.7784L96.014 54.779C95.8594 54.779 95.732 54.7739 95.6318 54.7639C95.5315 54.7539 95.4511 54.7388 95.3905 54.7188C95.33 54.6987 95.2871 54.6736 95.2621 54.6435C95.237 54.6134 95.2245 54.5783 95.2245 54.5381V49.1794C95.2245 49.1393 95.237 49.1042 95.2621 49.0741C95.2871 49.044 95.33 49.0179 95.3905 48.9958C95.4511 48.9737 95.5315 48.9567 95.6318 48.9446C95.732 48.9326 95.8594 48.9266 96.014 48.9266ZM87.495 48.9266C87.6495 48.9266 87.7769 48.9326 87.8772 48.9446C87.9774 48.9567 88.0578 48.9737 88.1184 48.9958C88.179 49.0179 88.2218 49.044 88.2468 49.0741C88.2719 49.1042 88.2844 49.1393 88.2844 49.1794V54.5381C88.2844 54.5783 88.2719 54.6134 88.2468 54.6435C88.2218 54.6736 88.179 54.6987 88.1184 54.7188C88.0578 54.7388 87.9774 54.7539 87.8772 54.7639C87.797 54.7719 87.6994 54.7768 87.5844 54.7784L87.495 54.779C87.3404 54.779 87.213 54.7739 87.1128 54.7639C87.0125 54.7539 86.9321 54.7388 86.8715 54.7188C86.811 54.6987 86.7681 54.6736 86.7431 54.6435C86.718 54.6134 86.7055 54.5783 86.7055 54.5381V49.1794C86.7055 49.1393 86.718 49.1042 86.7431 49.0741C86.7681 49.044 86.811 49.0179 86.8715 48.9958C86.9321 48.9737 87.0125 48.9567 87.1128 48.9446C87.213 48.9326 87.3404 48.9266 87.495 48.9266ZM75.4186 48.9266C75.5731 48.9266 75.7005 48.9326 75.8008 48.9446C75.9011 48.9567 75.9815 48.9737 76.042 48.9958C76.1026 49.0179 76.1454 49.044 76.1705 49.0741C76.1955 49.1042 76.2081 49.1393 76.2081 49.1794V54.5381C76.2081 54.5783 76.1955 54.6134 76.1705 54.6435C76.1454 54.6736 76.1026 54.6987 76.042 54.7188C75.9815 54.7388 75.9011 54.7539 75.8008 54.7639C75.7206 54.7719 75.623 54.7768 75.5081 54.7784L75.4186 54.779C75.264 54.779 75.1366 54.7739 75.0364 54.7639C74.9361 54.7539 74.8557 54.7388 74.7952 54.7188C74.7346 54.6987 74.6918 54.6736 74.6667 54.6435C74.6417 54.6134 74.6291 54.5783 74.6291 54.5381V49.1794C74.6291 49.1393 74.6417 49.1042 74.6667 49.0741C74.6918 49.044 74.7346 49.0179 74.7952 48.9958C74.8557 48.9737 74.9361 48.9567 75.0364 48.9446C75.1366 48.9326 75.264 48.9266 75.4186 48.9266ZM21.726 48.8242C22.1061 48.8242 22.4267 48.8844 22.6877 49.0048C22.9488 49.1253 23.1597 49.2888 23.3206 49.4955C23.4814 49.7023 23.5973 49.9441 23.6683 50.2211C23.7393 50.498 23.7748 50.8312 23.7748 51.2206V54.5381C23.7748 54.5783 23.7623 54.6134 23.7372 54.6435C23.7122 54.6736 23.6704 54.6987 23.6119 54.7188C23.5534 54.7388 23.473 54.7539 23.3707 54.7639C23.2888 54.7719 23.1916 54.7768 23.079 54.7784L22.9916 54.779C22.8371 54.779 22.7086 54.7739 22.6063 54.7639C22.5039 54.7539 22.4235 54.7388 22.3651 54.7188C22.3066 54.6987 22.2648 54.6736 22.2397 54.6435C22.2147 54.6134 22.2021 54.5783 22.2021 54.5381V51.4734C22.2021 51.2125 22.1823 51.0078 22.1426 50.8593C22.1029 50.7108 22.0455 50.5833 21.9703 50.477C21.8951 50.3706 21.798 50.2883 21.679 50.2301C21.5599 50.1719 21.421 50.1428 21.2623 50.1428C21.0618 50.1428 20.8592 50.213 20.6545 50.3535C20.4499 50.494 20.2368 50.6987 20.0154 50.9677V54.5381C20.0154 54.5783 20.0029 54.6134 19.9778 54.6435C19.9528 54.6736 19.91 54.6987 19.8494 54.7188C19.7888 54.7388 19.7084 54.7539 19.6082 54.7639C19.528 54.7719 19.4304 54.7768 19.3154 54.7784L19.226 54.779C19.0714 54.779 18.944 54.7739 18.8438 54.7639C18.7435 54.7539 18.6631 54.7388 18.6025 54.7188C18.542 54.6987 18.4991 54.6736 18.4741 54.6435C18.449 54.6134 18.4365 54.5783 18.4365 54.5381V49.1674C18.4365 49.1273 18.4469 49.0921 18.4678 49.062C18.4887 49.0319 18.5263 49.0068 18.5806 48.9868C18.6349 48.9667 18.7049 48.9516 18.7905 48.9416C18.8761 48.9316 18.9837 48.9266 19.1132 48.9266L19.2626 48.929C19.3317 48.9314 19.3926 48.9356 19.4453 48.9416C19.533 48.9516 19.6009 48.9667 19.6489 48.9868C19.6969 49.0068 19.7314 49.0319 19.7523 49.062C19.7732 49.0921 19.7836 49.1273 19.7836 49.1674V49.7876C20.0927 49.4664 20.407 49.2256 20.7266 49.065C21.0461 48.9045 21.3793 48.8242 21.726 48.8242ZM35.1948 48.8242C35.5749 48.8242 35.8955 48.8844 36.1566 49.0048C36.4177 49.1253 36.6286 49.2888 36.7894 49.4955C36.9502 49.7023 37.0662 49.9441 37.1372 50.2211C37.2082 50.498 37.2437 50.8312 37.2437 51.2206V54.5381C37.2437 54.5783 37.2312 54.6134 37.2061 54.6435C37.181 54.6736 37.1393 54.6987 37.0808 54.7188C37.0223 54.7388 36.9419 54.7539 36.8396 54.7639C36.7577 54.7719 36.6604 54.7768 36.5478 54.7784L36.4605 54.779C36.3059 54.779 36.1775 54.7739 36.0751 54.7639C35.9728 54.7539 35.8924 54.7388 35.8339 54.7188C35.7754 54.6987 35.7337 54.6736 35.7086 54.6435C35.6835 54.6134 35.671 54.5783 35.671 54.5381V51.4734C35.671 51.2125 35.6512 51.0078 35.6115 50.8593C35.5718 50.7108 35.5144 50.5833 35.4392 50.477C35.364 50.3706 35.2669 50.2883 35.1478 50.2301C35.0288 50.1719 34.8899 50.1428 34.7312 50.1428C34.5307 50.1428 34.3281 50.213 34.1234 50.3535C33.9187 50.494 33.7057 50.6987 33.4843 50.9677V54.5381C33.4843 54.5783 33.4718 54.6134 33.4467 54.6435C33.4216 54.6736 33.3788 54.6987 33.3183 54.7188C33.2577 54.7388 33.1773 54.7539 33.077 54.7639C32.9968 54.7719 32.8993 54.7768 32.7843 54.7784L32.6948 54.779C32.5403 54.779 32.4129 54.7739 32.3126 54.7639C32.2124 54.7539 32.132 54.7388 32.0714 54.7188C32.0108 54.6987 31.968 54.6736 31.943 54.6435C31.9179 54.6134 31.9054 54.5783 31.9054 54.5381V49.1674C31.9054 49.1273 31.9158 49.0921 31.9367 49.062C31.9576 49.0319 31.9952 49.0068 32.0495 48.9868C32.1038 48.9667 32.1737 48.9516 32.2594 48.9416C32.345 48.9316 32.4526 48.9266 32.5821 48.9266L32.7314 48.929C32.8006 48.9314 32.8615 48.9356 32.9141 48.9416C33.0018 48.9516 33.0697 48.9667 33.1178 48.9868C33.1658 49.0068 33.2003 49.0319 33.2211 49.062C33.242 49.0921 33.2525 49.1273 33.2525 49.1674V49.7876C33.5616 49.4664 33.8759 49.2256 34.1955 49.065C34.515 48.9045 34.8481 48.8242 35.1948 48.8242ZM61.3494 52.2562H60.7479C60.4931 52.2562 60.2758 52.2742 60.0962 52.3104C59.9166 52.3465 59.7704 52.4007 59.6576 52.4729C59.5449 52.5452 59.4624 52.6325 59.4101 52.7348C59.3579 52.8372 59.3318 52.9546 59.3318 53.0871C59.3318 53.3119 59.406 53.4885 59.5542 53.6169C59.7025 53.7454 59.9083 53.8096 60.1714 53.8096C60.3928 53.8096 60.5964 53.7554 60.7823 53.647C60.9682 53.5386 61.1572 53.3801 61.3494 53.1714V52.2562ZM49.6474 52.2562H49.0459C48.7911 52.2562 48.5739 52.2742 48.3943 52.3104C48.2147 52.3465 48.0685 52.4007 47.9557 52.4729C47.8429 52.5452 47.7604 52.6325 47.7082 52.7348C47.656 52.8372 47.6299 52.9546 47.6299 53.0871C47.6299 53.3119 47.704 53.4885 47.8523 53.6169C48.0006 53.7454 48.2063 53.8096 48.4695 53.8096C48.6908 53.8096 48.8945 53.7554 49.0804 53.647C49.2662 53.5386 49.4552 53.3801 49.6474 53.1714V52.2562ZM126.66 52.2562H126.058C125.804 52.2562 125.586 52.2742 125.407 52.3104C125.227 52.3465 125.081 52.4007 124.968 52.4729C124.855 52.5452 124.773 52.6325 124.721 52.7348C124.668 52.8372 124.642 52.9546 124.642 53.0871C124.642 53.3119 124.716 53.4885 124.865 53.6169C125.013 53.7454 125.219 53.8096 125.482 53.8096C125.703 53.8096 125.907 53.7554 126.093 53.647C126.252 53.5541 126.414 53.4244 126.578 53.2577L126.66 53.1714V52.2562ZM28.6609 52.2562H28.0594C27.8046 52.2562 27.5874 52.2742 27.4078 52.3104C27.2281 52.3465 27.0819 52.4007 26.9692 52.4729C26.8564 52.5452 26.7739 52.6325 26.7217 52.7348C26.6695 52.8372 26.6434 52.9546 26.6434 53.0871C26.6434 53.3119 26.7175 53.4885 26.8658 53.6169C27.0141 53.7454 27.2198 53.8096 27.4829 53.8096C27.7043 53.8096 27.908 53.7554 28.0938 53.647C28.2797 53.5386 28.4687 53.3801 28.6609 53.1714V52.2562ZM118.873 50.1067C118.668 50.1067 118.492 50.1558 118.343 50.2542C118.195 50.3525 118.076 50.484 117.986 50.6486C117.896 50.8131 117.83 50.9968 117.786 51.1995C117.742 51.4022 117.72 51.6099 117.72 51.8227C117.72 52.0474 117.739 52.2662 117.776 52.4789C117.814 52.6917 117.875 52.8813 117.961 53.0479C118.047 53.2145 118.161 53.348 118.303 53.4483C118.445 53.5487 118.624 53.5989 118.841 53.5989C118.95 53.5989 119.056 53.5838 119.158 53.5537C119.26 53.5236 119.365 53.4744 119.471 53.4062C119.578 53.3379 119.687 53.2486 119.8 53.1382C119.913 53.0279 120.036 52.8924 120.17 52.7318V50.9496C119.944 50.6767 119.728 50.4679 119.521 50.3234C119.314 50.1789 119.098 50.1067 118.873 50.1067ZM70.0563 50.1067C69.8517 50.1067 69.6752 50.1558 69.5269 50.2542C69.3786 50.3525 69.2596 50.484 69.1698 50.6486C69.0799 50.8131 69.0131 50.9968 68.9693 51.1995C68.9254 51.4022 68.9035 51.6099 68.9035 51.8227C68.9035 52.0474 68.9223 52.2662 68.9598 52.4789C68.9974 52.6917 69.0591 52.8813 69.1447 53.0479C69.2303 53.2145 69.3441 53.348 69.4862 53.4483C69.6282 53.5487 69.8078 53.5989 70.025 53.5989C70.1336 53.5989 70.2391 53.5838 70.3414 53.5537C70.4438 53.5236 70.5482 53.4744 70.6547 53.4062C70.7612 53.3379 70.8709 53.2486 70.9837 53.1382C71.0964 53.0279 71.2197 52.8924 71.3533 52.7318V50.9496C71.1278 50.6767 70.9116 50.4679 70.7048 50.3234C70.4981 50.1789 70.2819 50.1067 70.0563 50.1067ZM104.539 48.4389H104.533L103.386 51.7504H105.686L104.539 48.4389ZM14.3399 49.8959C14.1394 49.8959 13.965 49.9321 13.8167 50.0043C13.6684 50.0766 13.5452 50.1739 13.447 50.2963C13.3489 50.4188 13.2737 50.5633 13.2215 50.7299C13.1693 50.8964 13.139 51.074 13.1306 51.2627H15.4865C15.499 50.8372 15.4103 50.5031 15.2202 50.2602C15.0302 50.0174 14.7367 49.8959 14.3399 49.8959ZM43.8706 46.7874C44.2215 46.7874 44.4596 46.8446 44.5849 46.959C44.7102 47.0734 44.7729 47.2771 44.7729 47.5701C44.7729 47.8752 44.7081 48.0859 44.5786 48.2023C44.4491 48.3187 44.2089 48.3769 43.8581 48.3769C43.503 48.3769 43.2639 48.3207 43.1407 48.2083C43.0174 48.0959 42.9558 47.8932 42.9558 47.6002C42.9558 47.2951 43.0195 47.0834 43.1469 46.965C43.2743 46.8466 43.5155 46.7874 43.8706 46.7874ZM75.4249 46.5663C75.7757 46.5663 76.0138 46.6235 76.1391 46.7379C76.2645 46.8523 76.3271 47.056 76.3271 47.3491C76.3271 47.6541 76.2624 47.8649 76.1329 47.9813C76.0034 48.0977 75.7632 48.1559 75.4123 48.1559C75.0573 48.1559 74.8181 48.0997 74.6949 47.9873C74.5717 47.8749 74.5101 47.6722 74.5101 47.3792C74.5101 47.0741 74.5738 46.8624 74.7012 46.7439C74.8286 46.6255 75.0698 46.5663 75.4249 46.5663ZM87.5012 46.5663C87.8521 46.5663 88.0902 46.6235 88.2155 46.7379C88.3408 46.8523 88.4035 47.056 88.4035 47.3491C88.4035 47.6541 88.3387 47.8649 88.2092 47.9813C88.0798 48.0977 87.8396 48.1559 87.4887 48.1559C87.1336 48.1559 86.8945 48.0997 86.7713 47.9873C86.6481 47.8749 86.5864 47.6722 86.5864 47.3792C86.5864 47.0741 86.6501 46.8624 86.7775 46.7439C86.9049 46.6255 87.1462 46.5663 87.5012 46.5663ZM96.0202 46.5663C96.3711 46.5663 96.6092 46.6235 96.7345 46.7379C96.8598 46.8523 96.9225 47.056 96.9225 47.3491C96.9225 47.6541 96.8577 47.8649 96.7282 47.9813C96.5988 48.0977 96.3586 48.1559 96.0077 48.1559C95.6526 48.1559 95.4135 48.0997 95.2903 47.9873C95.1671 47.8749 95.1055 47.6722 95.1055 47.3792C95.1055 47.0741 95.1691 46.8624 95.2965 46.7439C95.424 46.6255 95.6652 46.5663 96.0202 46.5663ZM19.984 0C25.2475 0 30.8693 1.292 36.2382 3.74292L36.3761 3.80183L36.4398 3.93584C38.9281 8.98016 40.2404 14.3961 40.2404 19.6087C40.2404 24.6876 39.0345 29.7651 36.6496 34.703L36.4231 35.1645L36.2846 35.2259C31.328 37.4802 25.7386 38.6737 20.1219 38.6737C14.82 38.6737 9.37172 37.4192 3.93061 34.9375L3.79701 34.8745L3.73325 34.7437C1.29146 29.7907 0 24.3734 0 19.0732C0 13.7809 1.23838 8.59532 3.68192 3.64884L3.74907 3.51739L3.88504 3.45196C8.91867 1.16056 14.3332 0 19.984 0ZM19.984 0.81782C14.5132 0.81782 9.26957 1.93274 4.38837 4.1326C2.04533 8.92679 0.852713 13.9506 0.852713 19.0732C0.852713 24.2052 2.09191 29.4552 4.43415 34.2581C9.71996 36.6477 14.9919 37.8544 20.1219 37.8544C25.5611 37.8544 30.9706 36.7115 35.7861 34.5458C38.1785 29.6609 39.3907 24.6332 39.3907 19.6087C39.3907 14.5634 38.1252 9.3158 35.7314 4.4196C30.5211 2.06585 25.0793 0.81782 19.984 0.81782ZM18.6138 32.6687L19.863 32.7208C20.4534 32.7488 20.6078 33.2118 20.5895 33.6541C20.5721 33.9227 20.485 34.2231 20.2413 34.3858C20.0412 34.5244 19.7841 34.557 19.5461 34.5458L19.139 34.5244L19.0577 35.8339L18.4181 35.7935L18.6138 32.6687ZM99.6787 3.06147L106.523 6.53251L101.558 15.1923C99.6838 13.7298 97.3955 12.6537 94.4762 12.6537C87.5671 12.6537 84.7603 17.6026 84.7603 21.0888C84.7603 23.6768 86.5236 27.4946 92.6712 27.4946C95.2516 27.4946 98.92 25.7697 99.9758 24.9847L95.0658 35.0313L94.4079 35.1608L92.9537 35.4606C91.9804 35.6575 91.2152 35.7803 89.9747 35.8172C78.9715 36.1328 74.5251 29.6371 74.5284 23.0001C74.536 14.2255 82.6538 3.55484 96.1115 3.55484C96.9362 3.55484 97.9448 3.82891 98.8072 4.1326L99.6787 3.06147ZM24.5409 32.6171C24.6662 32.7637 24.7144 32.8877 24.7426 33.0653L24.7524 33.1345C24.7931 33.4022 24.7125 33.7113 24.3992 33.8652V33.8748C24.749 33.8748 24.9606 34.1165 25.022 34.5244L25.0358 34.6644C25.0435 34.7617 25.0477 34.8837 25.031 34.9922C24.9599 35.4051 24.7035 35.5383 24.2705 35.5965L23.2005 35.736L22.7544 32.6068L23.8317 32.4498C24.0939 32.4154 24.4131 32.4593 24.5409 32.6171ZM15.5458 32.3412L16.2011 32.4131L15.9107 34.62L15.903 34.6967C15.8872 34.9047 15.9202 35.1313 16.2634 35.1645C16.644 35.1924 16.7303 34.9501 16.7734 34.6486L17.0514 32.5151L17.7015 32.5877L17.4212 34.7729C17.2851 35.4658 17.0065 35.7684 16.2136 35.6739C15.4065 35.5759 15.2149 35.2227 15.2638 34.5244L15.5458 32.3412ZM11.8849 34.9292L12.5857 31.821L13.7063 32.064C14.3622 32.2003 14.5604 32.4808 14.4677 33.0586C14.4173 33.3728 14.262 33.7099 13.8926 33.7198L13.8396 33.7185L13.8834 33.7344C14.1592 33.8438 14.1975 33.9966 14.1546 34.2417L14.1442 34.2956C14.1176 34.4209 13.9351 35.1805 14.0612 35.3029L14.0653 35.3964L13.3852 35.2259C13.3695 35.1089 13.3923 34.9401 13.4221 34.7771L13.5163 34.2996C13.5441 34.1369 13.5489 33.9589 13.3951 33.8819C13.2417 33.8032 13.1845 33.807 13.0112 33.7688L12.8345 33.7344L12.5425 35.0659L11.8849 34.9292ZM27.5521 32.5188L27.5748 32.5908C27.5981 32.668 27.6271 32.7446 27.638 32.8226L27.0475 32.9398L27.0058 32.8174L26.975 32.7346C26.9083 32.568 26.8083 32.4052 26.6235 32.4256C26.1466 32.4808 26.3043 33.0507 26.3533 33.2891L26.5476 34.2235C26.6068 34.4792 26.7292 34.8109 27.1022 34.7388C27.4372 34.6742 27.2912 34.173 27.2615 33.9674L27.8668 33.8539C27.8752 33.9121 27.885 33.9769 27.8884 34.0351C27.9757 34.6057 27.8668 35.0784 27.1991 35.2084C26.242 35.3852 26.0353 34.8369 25.8655 34.0512L25.7569 33.5305L25.7225 33.3202L25.7037 33.1858C25.6267 32.5697 25.7085 32.1158 26.5249 31.9595C27.0415 31.8691 27.3912 32.0528 27.5521 32.5188ZM23.8509 34.2141L23.6153 34.2492L23.7646 35.1931L24.0211 35.1592C24.1048 35.1475 24.1848 35.1309 24.2523 35.0895C24.4075 34.9922 24.3933 34.7842 24.3717 34.6295C24.3178 34.2901 24.2258 34.1611 23.8509 34.2141ZM54.1469 3.33316L63.3436 3.32097L66.8869 3.32778C67.2583 3.32928 67.6057 3.33106 67.9228 3.33316C73.1043 3.36103 76.0323 6.06386 76.0323 9.96778C76.0323 13.5672 72.9443 16.7529 69.5545 18.4003C73.0445 19.6333 73.3463 22.6597 73.3463 24.8005C73.3463 29.9735 67.9454 34.8066 60.924 34.8066H45.6123L51.5851 12.645L49.1317 12.6314L54.1469 3.33316ZM127.009 3.33316L128.414 34.8066H117.951L117.945 29.409H110.811L108.463 34.8066H97.1154L108.979 12.3317L106.303 12.3151L111.386 3.33316H127.009ZM29.4029 31.33L31.066 34.1464L30.4415 34.3258L30.0475 33.6102L29.3541 33.8103L29.4436 34.6241L28.8142 34.8008L28.61 31.5625L29.4029 31.33ZM10.6423 31.2765C11.1491 31.4127 11.4634 31.6273 11.4485 32.1931C11.446 32.3191 11.4028 32.4474 11.3746 32.5717L10.785 32.4154L10.808 32.319C10.8675 32.0522 10.8688 31.8425 10.5104 31.7365C10.0475 31.6143 9.93489 32.1539 9.87092 32.3869L9.60943 33.3117L9.58851 33.399C9.53826 33.6389 9.54339 33.9254 9.87092 34.0119C10.2077 34.0987 10.4118 33.7815 10.5337 33.3176L10.1215 33.2125L10.264 32.7215L11.2336 33.0212L10.7734 34.6575L10.3272 34.5411L10.4275 34.1951H10.415C10.2093 34.478 9.95875 34.5077 9.73908 34.4672C8.8283 34.2305 8.86231 33.6786 9.06162 32.938L9.22484 32.3525L9.2924 32.1497L9.3384 32.0215C9.55683 31.4374 9.83867 31.0648 10.6423 31.2765ZM19.2176 33.1441L19.1573 34.0477L19.4881 34.0654C19.7569 34.0749 19.9351 33.9728 19.9583 33.5935C19.9716 33.2292 19.8281 33.1672 19.4798 33.1526L19.2176 33.1441ZM23.7739 32.8882L23.4377 32.9398L23.549 33.7416L23.6684 33.7297L23.7692 33.7144C23.8913 33.6945 24.0221 33.6619 24.0846 33.5608L24.1135 33.504C24.1465 33.4373 24.173 33.3623 24.1452 33.2118C24.1041 32.9973 24.0322 32.8591 23.7739 32.8882ZM13.1306 32.4131L12.9463 33.253L13.3893 33.3678C13.6581 33.4052 13.8074 33.2714 13.8605 32.9592C13.9086 32.6728 13.8464 32.5611 13.6051 32.5057L13.1306 32.4131ZM29.1317 31.8377L29.296 33.2874L29.797 33.1478L29.1317 31.8377ZM19.725 3.51673L19.8975 3.51314L19.9405 3.51366C23.3699 3.56746 26.3066 5.76991 26.2936 9.54695C26.2876 12.763 23.5988 14.4846 22.6299 15.7145C21.1777 17.5675 20.3641 19.6773 20.3117 23.0343L20.2992 24.1106L20.294 25.0896C20.2907 26.3002 20.2987 27.442 20.3073 28.289L20.3201 29.3603H19.5503L19.5221 25.8785L19.5128 25.1184C19.5038 24.4717 19.492 23.7956 19.4758 23.1172C19.3944 19.7609 18.6089 17.5675 17.1574 15.7145C16.1969 14.4846 13.5055 12.7629 13.4945 9.54695C13.4842 5.81772 16.3485 3.62347 19.725 3.51673ZM28.3359 13.0587L28.4244 13.0674C30.4523 13.2364 32.15 14.0311 33.0648 16.317C33.9101 18.4474 33.1496 21.2808 30.341 21.9456L29.888 22.0546L29.4299 22.168C26.9682 22.7878 25.445 23.3421 24.3055 24.092C22.7501 25.1179 21.5683 27.0786 21.5318 29.3572L20.869 29.3548L20.8677 24.5461L20.8779 23.5233C20.8811 23.3643 20.885 23.248 20.8898 23.1858C20.8561 17.1163 25.3992 12.817 28.3359 13.0587ZM32.8666 21.2929C33.633 22.0318 33.7716 23.6926 33.6372 24.6635C33.4779 25.7866 32.1152 27.638 30.0624 27.7105C29.0155 27.7511 27.7316 27.5434 26.8943 27.3832L26.4519 27.2953C25.143 27.0227 23.0588 27.8133 22.7262 29.3548L22.1246 29.3572C22.114 27.3814 23.261 25.6343 24.7566 24.6954C26.0927 23.8656 27.881 23.3204 30.7598 22.6182C31.6523 22.3991 32.583 21.9129 32.8666 21.2929ZM18.8992 23.1858L18.9033 23.2536L18.9116 23.5324C18.9244 24.1639 18.9261 25.4528 18.9251 26.7096L18.9216 29.3548L18.3417 29.3572C18.308 27.0786 17.0372 25.1179 15.4803 24.092C14.2097 23.2536 12.4537 22.6597 9.4472 21.9456C6.63527 21.2808 5.87904 18.4474 6.72494 16.317C7.61867 14.0778 9.26771 13.2695 11.2409 13.0786L11.3647 13.0674C14.2951 12.7303 18.934 17.0549 18.8992 23.1858ZM6.9182 21.2929C7.20678 21.9129 8.13837 22.3991 9.02903 22.6182L9.74624 22.7956L10.213 22.9145C12.418 23.4842 13.8895 23.9856 15.0275 24.6954C16.4915 25.6119 17.6201 27.2987 17.6639 29.2165L17.6651 29.3572L17.0588 29.3548C16.7347 27.8454 14.7351 27.056 13.4185 27.2797L13.0276 27.357L12.7323 27.4133C11.898 27.5681 10.7123 27.7486 9.72993 27.7105C7.67289 27.638 6.30688 25.7866 6.15095 24.6635C6.01664 23.6926 6.15518 22.0318 6.9182 21.2929ZM62.2382 21.6555H58.5356L57.134 26.8282H60.7187C62.1287 26.8282 64.0504 26.1555 64.5214 24.4721C64.9865 22.7841 63.6431 21.6555 62.2382 21.6555ZM117.877 12.9615L113.844 22.1162H117.999L117.877 12.9615ZM61.1232 11.6048L60.0616 16.0937H62.8394C63.9112 16.0937 65.8037 15.8331 66.2768 13.8398C66.7952 11.6758 65.0192 11.6176 64.1673 11.6176L61.1232 11.6048Z" fill="#005CAA"/>
</svg>
